<svg xmlns="http://www.w3.org/2000/svg" width="2507" height="2472" fill="none">
  <g fill="#1F1926" clip-path="url(#a)">
    <path
        d="M2323 1832a108 108 0 0 1 79 105v119a108 108 0 0 1-184 76c-20-20-32-47-32-76v-119a108 108 0 0 1 137-105Zm-30 81c11 0 20 9 20 21v21c0 11-9 20-20 20s-21-9-21-20v-21c0-12 10-21 21-21Zm59-35a82 82 0 0 0-140 59v119a82 82 0 0 0 140 58c15-15 25-36 25-58v-119c0-23-10-44-25-59Z"/>
    <path fill-rule="evenodd" d="M2264 1782c-2 3-1 6 2 8 24 17 24 28 24 41l12-1c0-13-1-29-30-50-2-1-6-1-8 2Z"
          clip-rule="evenodd"/>
  </g>
  <path fill="#1F1926" fill-rule="evenodd"
        d="M2231 1781c0 3 0 5 3 5 29-3 36 5 44 15l10-8c-10-10-20-22-55-19-3 0-2 3-2 7Zm-43 27c2-3 6-4 8-2 3 2 4 6 2 8-21 29-36 30-50 30-13 0-24 0-42 24l-10-7c21-29 37-29 52-29 12 0 23 0 40-24Z"
        clip-rule="evenodd"/>
  <path fill="#1F1926" fill-rule="evenodd"
        d="M2190 1815c3 2 7 1 9-2 14-25 25-27 38-28l-2-12c-13 2-29 3-47 34-1 3 0 6 2 8Z" clip-rule="evenodd"/>
  <path fill="#CECECE" d="M1284 1748a82 82 0 0 1 0-163h460v163h-460Z"/>
  <path stroke="#1F3969" stroke-linecap="round" stroke-linejoin="round" stroke-miterlimit="10" stroke-width="4"
        d="M1254 1641h490-490Zm0 50h490-490Zm30 57a82 82 0 0 1 0-163h460v163h-460Z"/>
  <path fill="#FF3E3E" d="M1284 1748a82 82 0 0 1 0-163h468l19-28h-487a110 110 0 0 0 0 219h487l-19-28h-468Z"/>
  <path stroke="#1F3969" stroke-linecap="round" stroke-linejoin="round" stroke-miterlimit="10" stroke-width="4"
        d="M1284 1748a82 82 0 0 1 0-163h468l19-28h-487a110 110 0 0 0 0 219h487l-19-28h-468v0Z"/>
  <path fill="#50B56F"
        d="M1788 2142H896a32 32 0 0 1-32-32v-117a32 32 0 0 1 32-32h892a32 32 0 0 1 32 32v117a32 32 0 0 1-32 32Z"/>
  <path fill="#fff"
        d="M1137 2057h-12v26h-8v-62h20c14 0 21 8 21 18s-6 18-21 18Zm0-7c9 0 13-4 13-11s-4-11-13-11h-12v22h12Zm44-29h9l15 31 16-31h9l-20 39v23h-9v-23l-20-39Zm72 0h42v6h-17v56h-8v-56h-17v-6Zm110 34h-32v28h-8v-62h8v27h32v-27h8v62h-8v-28Zm68 29c-18 0-32-13-32-32s14-32 32-32c17 0 31 13 31 32s-14 32-31 32Zm0-7c13 0 23-10 23-25s-10-25-23-25-23 10-23 25 10 25 23 25Zm109-56v62h-8l-33-49v49h-8v-62h8l33 49v-49h8Z"/>
  <path stroke="#1F3969" stroke-linecap="round" stroke-linejoin="round" stroke-miterlimit="10" stroke-width="4"
        d="M1788 2142H896a32 32 0 0 1-32-32v-117a32 32 0 0 1 32-32h892a32 32 0 0 1 32 32v117a32 32 0 0 1-32 32v0Z"/>
  <path fill="#3ABEAA"
        d="M1751 1957H859a32 32 0 0 1-32-32v-117a32 32 0 0 1 32-32h892a32 32 0 0 1 32 32v117a32 32 0 0 1-32 32Z"/>
  <path stroke="#1F3969" stroke-linecap="round" stroke-linejoin="round" stroke-miterlimit="10" stroke-width="4"
        d="M1751 1957H859a32 32 0 0 1-32-32v-117a32 32 0 0 1 32-32h892a32 32 0 0 1 32 32v117a32 32 0 0 1-32 32v0Z"/>
  <path fill="#BFDDE2" d="m1409 1672-14-158h-232l-14 158c-4 37-26 72-60 100v1h380v-1c-34-28-56-63-60-100Z"/>
  <path fill="#1F3969" stroke="#1F3969" stroke-linecap="round" stroke-linejoin="round" stroke-miterlimit="10"
        stroke-width="4" d="m1163 1514-9 95h250l-9-95h-232Z" opacity=".3"/>
  <path stroke="#1F3969" stroke-linecap="round" stroke-linejoin="round" stroke-miterlimit="10" stroke-width="4"
        d="m1409 1672-14-158h-232l-14 158c-4 37-26 72-60 100v1h380v-1c-34-28-56-63-60-100v0Z"/>
  <path fill="#fff"
        d="M2022 1538H536c-31 0-56-25-56-57V513c0-31 25-56 56-56h1486c31 0 56 25 56 56v968c0 32-25 57-56 57Z"/>
  <path fill="#BFDDE2"
        d="M2022 1538H536c-31 0-56-25-56-57V513c0-31 25-56 56-56h1486c31 0 56 25 56 56v968c0 32-25 57-56 57Z"/>
  <path stroke="#1F3969" stroke-linecap="round" stroke-linejoin="round" stroke-miterlimit="10" stroke-width="4"
        d="M2022 1538H536c-31 0-56-25-56-57V513c0-31 25-56 56-56h1486c31 0 56 25 56 56v968c0 32-25 57-56 57Z"/>
  <path fill="#F6F9FD" d="M1998 537v820H560V537h1438Z"/>
  <path fill="#1F3969" stroke="#1F3969" stroke-linecap="round" stroke-linejoin="round" stroke-miterlimit="10"
        stroke-width="4" d="M612 457v651a38 38 0 0 0 37 38h889a38 38 0 0 0 37-38V457H612Z" opacity=".3"/>
  <path stroke="#1F3969" stroke-linecap="round" stroke-linejoin="round" stroke-miterlimit="10" stroke-width="4"
        d="M1998 537v820H560V537h1438Zm-782 910h126"/>
  <path fill="#1F1926"
        d="M1580 1094H692a38 38 0 0 1-38-37V360a38 38 0 0 1 38-38h888a38 38 0 0 1 38 38v697a38 38 0 0 1-38 37Z"/>
  <path stroke="#1F3969" stroke-linecap="round" stroke-linejoin="round" stroke-miterlimit="10" stroke-width="4"
        d="M1618 413H654v-53a38 38 0 0 1 38-38h888a38 38 0 0 1 38 38v53h0Z"/>
  <path fill="#D0DDF0" d="M1618 431H654v-71a38 38 0 0 1 38-38h888a38 38 0 0 1 38 38v71Z"/>
  <path stroke="#1F3969" stroke-linecap="round" stroke-linejoin="round" stroke-miterlimit="10" stroke-width="4"
        d="M1618 431H654v-71a38 38 0 0 1 38-38h888a38 38 0 0 1 38 38v71h0Z"/>
  <path stroke="#1F3969" stroke-linecap="round" stroke-linejoin="round" stroke-miterlimit="10" stroke-width="4"
        d="M1618 431H654v-71a38 38 0 0 1 38-38h888a38 38 0 0 1 38 38v71h0Z"/>
  <path stroke="#1F3969" stroke-linecap="round" stroke-linejoin="round" stroke-miterlimit="10" stroke-width="4"
        d="M1580 1094H692a38 38 0 0 1-38-37V360a38 38 0 0 1 38-38h888a38 38 0 0 1 38 38v697a38 38 0 0 1-38 37v0Z"/>
  <path fill="#1F3969" stroke="#1F3969" stroke-linecap="round" stroke-linejoin="round" stroke-miterlimit="10"
        stroke-width="4"
        d="M2044 1261h-545a38 38 0 0 1-38-38V645a38 38 0 0 1 38-38h545a38 38 0 0 1 38 38v578a38 38 0 0 1-38 38Z"
        opacity=".3"/>
  <path fill="#3ABEAA"
        d="M2082 1228h-546a38 38 0 0 1-37-38V612a38 38 0 0 1 37-37h546a38 38 0 0 1 37 37v578a38 38 0 0 1-37 38Z"/>
  <path stroke="#1F3969" stroke-linecap="round" stroke-linejoin="round" stroke-miterlimit="10" stroke-width="4"
        d="M2082 1228h-546a38 38 0 0 1-37-38V612a38 38 0 0 1 37-37h546a38 38 0 0 1 37 37v578a38 38 0 0 1-37 38Z"/>
  <path stroke="#fff" stroke-linecap="round" stroke-linejoin="round" stroke-miterlimit="10" stroke-width="2"
        d="M2000 754h-383a24 24 0 0 1-24-25v-36a24 24 0 0 1 24-25h383a24 24 0 0 1 25 25v36a24 24 0 0 1-25 25v0Zm-168 137h-215a24 24 0 0 1-24-24v-37a24 24 0 0 1 24-24h215a24 24 0 0 1 24 24v37a24 24 0 0 1-24 24v0Zm169 0h-83a24 24 0 0 1-24-24v-37a24 24 0 0 1 24-24h83a24 24 0 0 1 24 24v37a24 24 0 0 1-24 24Z"
        opacity=".3"/>
  <path stroke="#fff" stroke-linecap="round" stroke-linejoin="round" stroke-miterlimit="10" stroke-width="2"
        d="M1593 1136h263m-263-102h432-432Zm0 51h432-432Z"/>
  <path fill="#1F1926"
        d="M748 395a19 19 0 1 0 0-37 19 19 0 0 0 0 37Zm66 0a19 19 0 1 0 0-37 19 19 0 0 0 0 37Zm65 0a19 19 0 1 0 0-37 19 19 0 0 0 0 37Z"/>
  <path stroke="#fff" stroke-linecap="round" stroke-linejoin="round" stroke-miterlimit="10" stroke-width="4"
        d="M1208 518h60"/>
  <path stroke="#7BFFA0" stroke-linecap="round" stroke-linejoin="round" stroke-miterlimit="10" stroke-width="4"
        d="M898 518h265"/>
  <path stroke="#9169FF" stroke-linecap="round" stroke-linejoin="round" stroke-miterlimit="10" stroke-width="4"
        d="M888 981h203M767 518h93-93Z"/>
  <path stroke="#7BFFA0" stroke-linecap="round" stroke-linejoin="round" stroke-miterlimit="10" stroke-width="4"
        d="M767 981h65"/>
  <path stroke="#fff" stroke-linecap="round" stroke-linejoin="round" stroke-miterlimit="10" stroke-width="4"
        d="M1163 576h37"/>
  <path stroke="#9169FF" stroke-linecap="round" stroke-linejoin="round" stroke-miterlimit="10" stroke-width="4"
        d="M989 576h128"/>
  <path stroke="#FFC47D" stroke-linecap="round" stroke-linejoin="round" stroke-miterlimit="10" stroke-width="4"
        d="M814 576h130"/>
  <path stroke="#fff" stroke-linecap="round" stroke-linejoin="round" stroke-miterlimit="10" stroke-width="4"
        d="M1015 634h112"/>
  <path stroke="#FF5757" stroke-linecap="round" stroke-linejoin="round" stroke-miterlimit="10" stroke-width="4"
        d="M874 634h106"/>
  <path stroke="#fff" stroke-linecap="round" stroke-linejoin="round" stroke-miterlimit="10" stroke-width="4"
        d="M1030 692h24"/>
  <path stroke="#9169FF" stroke-linecap="round" stroke-linejoin="round" stroke-miterlimit="10" stroke-width="4"
        d="M937 692h52"/>
  <path stroke="#7BFFA0" stroke-linecap="round" stroke-linejoin="round" stroke-miterlimit="10" stroke-width="4"
        d="M814 692h84"/>
  <path stroke="#FFC47D" stroke-linecap="round" stroke-linejoin="round" stroke-miterlimit="10" stroke-width="4"
        d="M994 750h150"/>
  <path stroke="#FF5757" stroke-linecap="round" stroke-linejoin="round" stroke-miterlimit="10" stroke-width="4"
        d="M814 750h134"/>
  <path stroke="#9169FF" stroke-linecap="round" stroke-linejoin="round" stroke-miterlimit="10" stroke-width="4"
        d="M1167 808h82"/>
  <path stroke="#FF5757" stroke-linecap="round" stroke-linejoin="round" stroke-miterlimit="10" stroke-width="4"
        d="M994 808h130"/>
  <path stroke="#7BFFA0" stroke-linecap="round" stroke-linejoin="round" stroke-miterlimit="10" stroke-width="4"
        d="M874 808h74"/>
  <path stroke="#fff" stroke-linecap="round" stroke-linejoin="round" stroke-miterlimit="10" stroke-width="4"
        d="M1053 866h71"/>
  <path stroke="#9169FF" stroke-linecap="round" stroke-linejoin="round" stroke-miterlimit="10" stroke-width="4"
        d="M874 866h130"/>
  <path stroke="#fff" stroke-linecap="round" stroke-linejoin="round" stroke-miterlimit="10" stroke-width="4"
        d="M1238 923h81"/>
  <path stroke="#FFC47D" stroke-linecap="round" stroke-linejoin="round" stroke-miterlimit="10" stroke-width="4"
        d="M989 923h205"/>
  <path stroke="#fff" stroke-linecap="round" stroke-linejoin="round" stroke-miterlimit="10" stroke-width="4"
        d="M814 923h130"/>
  <path fill="#60F" d="M643 2144h1090v28H643v-28Zm0 135h1090v29H643v-29Z"/>
  <path fill="#BFDDE2" stroke="#1F3969" stroke-linecap="round" stroke-linejoin="round" stroke-miterlimit="10"
        stroke-width="4"
        d="M683 2205h1012H683Zm0 38h1012H683Zm1022-71H671a153 153 0 0 1 0 107h1034a147 147 0 0 1 0-107Z"/>
  <path fill="#664FFF" d="M704 2308h1090v28H704v-28Zm0 135h1090v29H704v-29Z"/>
  <path fill="#BFDDE2" stroke="#1F3969" stroke-linecap="round" stroke-linejoin="round" stroke-miterlimit="10"
        stroke-width="4"
        d="M744 2369h1012H744Zm0 38h1012H744Zm1022-71H732a153 153 0 0 1 0 107h1034a147 147 0 0 1 0-107Z"/>
  <path fill="#60F"
        d="M800 1247v643c0 37-29 67-64 67H64c-35 0-64-30-64-67v-643c0-37 29-67 64-67h672c35 0 64 30 64 67Z"/>
  <path fill="#1F1926" d="M800 1247v74H0v-74c0-37 29-67 64-67h672c35 0 64 30 64 67Z"/>
  <path fill="#664FFF" d="M705 1250c0 13 10 23 22 23s22-10 22-23-10-23-22-23-22 10-22 23Z"/>
  <path fill="#6660FF" d="M621 1250c0 13 10 23 22 23s22-10 22-23-10-23-22-23-22 10-22 23Z"/>
  <path fill="#BFDDE2" d="M347 1250c0 13-14 23-31 23H81c-17 0-31-10-31-23s14-23 31-23h235c17 0 31 10 31 23Z"/>
  <path fill="#E5E7E8"
        d="M537 1431H92c-9 0-16-8-16-17s7-17 16-17h445c8 0 16 8 16 17s-8 17-16 17Zm-92 77H177c-9 0-16-7-16-17 0-9 7-16 16-16h268c9 0 16 7 16 16 0 10-7 17-16 17Zm160 77H177c-9 0-16-7-16-16s7-17 16-17h428c9 0 16 8 16 17s-7 16-16 16Zm-68 78H294c-8 0-16-8-16-17s8-16 16-16h243a16 16 0 0 1 0 33Zm142 77H177c-9 0-16-7-16-16 0-10 7-17 16-17h502c9 0 16 7 16 17 0 9-7 16-16 16Zm-368 78H92c-9 0-16-8-16-17s7-17 16-17h219c9 0 16 8 16 17s-7 17-16 17Zm226 77H177c-9 0-16-7-16-17 0-9 7-16 16-16h360a16 16 0 0 1 0 33Z"/>
  <path fill="#1F1926"
        d="M2241 91c-4 0-7-3-7-7V26c0-7-5-12-12-12h-448c-7 0-12 5-12 12v58a7 7 0 0 1-14 0V26c0-14 12-26 26-26h448c14 0 26 12 26 26v58c0 4-3 7-7 7Z"/>
  <path fill="#1F1926"
        d="M1762 91v296c0 7 5 12 12 12h448c7 0 12-5 12-12V91h-472Zm460 322h-448c-14 0-26-12-26-26V84c0-3 3-7 7-7h486c4 0 7 4 7 7v303c0 14-12 26-26 26ZM1816 57a11 11 0 1 1 0-23 11 11 0 0 1 0 23Zm45 0a11 11 0 1 1 0-23 11 11 0 0 1 0 23Zm45 0a11 11 0 1 1 0-23 11 11 0 0 1 0 23Z"/>
  <path fill="#1F1926"
        d="m1930 306-4-1-70-54a7 7 0 0 1 0-11l70-54a7 7 0 1 1 8 11l-62 48 62 49a7 7 0 0 1-4 12Zm136 0a7 7 0 0 1-4-12l62-49-62-48a7 7 0 0 1 8-11l70 54a7 7 0 0 1 0 11l-70 54-4 1Zm-93 41h-2c-4-1-6-5-5-9l51-189a7 7 0 0 1 13 3l-51 190c-1 3-3 5-6 5Z"/>
  <path fill="#fff"
        d="M1105 1848h6v36l-2 9-5 5-8 2-7-2-5-4-2-7h6l1 4 3 2 4 1 5-1 3-3 1-6v-36Zm20 51h-6l18-51h7l19 51h-7l-15-43h-1l-15 43Zm3-20h26v6h-26v-6Zm40-31 15 43 16-43h6l-19 51h-6l-19-51h7Zm43 51h-7l19-51h6l19 51h-6l-16-43-15 43Zm2-20h26v6h-26v-6Zm71-18c-1-3-2-5-4-6l-8-2-6 1-4 3-1 4 1 4 3 2 3 2 3 1 5 1 5 2 4 2 4 4 1 6c0 3 0 5-2 8-1 2-3 4-6 5l-10 2-9-2-7-5-2-7h6l2 5 4 2 6 1 6-1 5-3 1-5-1-4-4-3-5-1-6-2c-4-1-7-3-9-5-3-2-4-5-4-8l2-8 7-5 9-2 8 2c3 1 5 3 6 5 2 2 3 4 3 7h-6Zm58 3h-7a13 13 0 0 0-5-8l-4-2a17 17 0 0 0-13 2c-3 1-5 3-6 6-2 3-2 7-2 12 0 4 0 8 2 11 1 3 3 5 6 7l8 2 5-1 4-2a13 13 0 0 0 5-8h7l-3 7a19 19 0 0 1-11 9 23 23 0 0 1-19-2l-8-10-2-13 2-14c2-4 5-7 8-9 4-3 8-4 12-4l7 2a20 20 0 0 1 11 8l3 7Zm9 35v-51h18l9 2c3 1 5 3 6 6l2 8-2 8-5 5-10 2h-14v-5h14l6-2c2 0 3-2 4-3l1-5-1-6-4-3-6-1h-11v45h-7Zm24-23 13 23h-7l-12-23h6Zm27-28v51h-6v-51h6Zm13 51v-51h17l10 2 5 6c2 2 2 5 2 8s0 6-2 8c-1 3-3 5-5 6-3 2-6 2-10 2h-12v-5h12l6-1 4-4 1-6-1-5-4-4-6-1h-11v45h-6Zm41-45v-6h39v6h-16v45h-7v-45h-16Z"/>
  <defs>
    <clipPath id="a">
      <path fill="#fff" d="M0 0h300v300H0z" transform="rotate(-45 3451 -1515)"/>
    </clipPath>
  </defs>
</svg>
