<svg width="2507" height="2472" viewBox="0 0 2507 2472" fill="none" xmlns="http://www.w3.org/2000/svg">
  <g clip-path="url(#clip0_93_3)">
    <path
        d="M2322.77 1832.46C2341.04 1837.5 2357.4 1847.27 2370.45 1860.32C2390.03 1879.9 2402.18 1906.93 2402.18 1936.66V2055.6C2402.18 2085.33 2390.03 2112.37 2370.45 2131.94C2350.88 2151.52 2323.84 2163.67 2294.11 2163.67C2264.4 2163.66 2237.39 2151.52 2217.81 2131.94C2198.23 2112.37 2186.08 2085.33 2186.08 2055.6V1936.66C2186.08 1906.93 2198.22 1879.91 2217.81 1860.32C2233.02 1845.11 2252.73 1834.37 2274.71 1830.35C2287.97 1827.94 2310.51 1829.07 2322.77 1832.46ZM2292.89 1912.99C2304.18 1912.99 2313.43 1922.24 2313.45 1933.55L2313.45 1954.72C2313.45 1966.01 2304.2 1975.26 2292.89 1975.28C2281.6 1975.28 2272.35 1966.02 2272.35 1954.73L2272.33 1933.55C2272.33 1922.23 2281.58 1912.97 2292.89 1912.99ZM2352.4 1878.38C2337.43 1863.41 2316.82 1854.12 2294.13 1854.12C2271.45 1854.12 2250.84 1863.41 2235.87 1878.38C2220.9 1893.35 2211.61 1913.96 2211.61 1936.64V2055.62C2211.61 2078.31 2220.9 2098.92 2235.87 2113.89C2250.84 2128.85 2271.45 2138.14 2294.13 2138.14C2316.82 2138.14 2337.43 2128.85 2352.4 2113.89C2367.36 2098.92 2376.65 2078.31 2376.65 2055.62V1936.68C2376.65 1913.96 2367.36 1893.35 2352.4 1878.38Z"
        fill="#1F1926"/>
    <path fill-rule="evenodd" clip-rule="evenodd"
          d="M2264.04 1781.96C2262.13 1784.67 2262.79 1788.41 2265.51 1790.31C2289.51 1807.12 2289.64 1817.98 2289.78 1830.56L2301.78 1830.41C2301.62 1816.54 2301.43 1800.82 2272.39 1780.48C2269.68 1778.58 2265.94 1779.24 2264.04 1781.96Z"
          fill="#1F1926"/>
  </g>
  <path fill-rule="evenodd" clip-rule="evenodd"
        d="M2231 1780.5C2231.29 1783.8 2230.67 1785.94 2233.97 1785.64C2263.16 1783.09 2270.24 1791.33 2278.44 1800.88L2287.53 1793.05C2278.49 1782.53 2268.25 1770.6 2232.93 1773.69C2229.63 1773.98 2230.71 1777.2 2231 1780.5Z"
        fill="#1F1926"/>
  <path fill-rule="evenodd" clip-rule="evenodd"
        d="M2187.87 1807.51C2189.77 1804.79 2193.51 1804.13 2196.22 1806.04C2198.94 1807.94 2199.6 1811.68 2197.7 1814.39C2177.36 1843.43 2161.64 1843.62 2147.77 1843.78L2147.76 1843.78C2135.33 1843.92 2123.56 1844.06 2105.5 1867.92L2095.68 1861.04C2117.47 1832.14 2133.45 1831.94 2147.62 1831.78C2160.2 1831.64 2171.06 1831.51 2187.87 1807.51Z"
        fill="#1F1926"/>
  <path fill-rule="evenodd" clip-rule="evenodd"
        d="M2190.49 1815.13C2193.36 1816.79 2197.03 1815.8 2198.68 1812.93C2213.33 1787.56 2224.14 1786.49 2236.66 1785.25L2235.48 1773.31L2235.47 1773.31C2221.67 1774.68 2206.02 1776.23 2188.29 1806.93C2186.64 1809.8 2187.62 1813.47 2190.49 1815.13Z"
        fill="#1F1926"/>
  <path
      d="M1283.7 1748.21C1238.76 1748.21 1202.2 1711.64 1202.2 1666.7C1202.2 1621.76 1238.76 1585.2 1283.7 1585.2H1744.44V1748.21H1283.7Z"
      fill="#CECECE"/>
  <path
      d="M1253.9 1641.42H1744.44H1253.9ZM1253.9 1691.2H1744.44H1253.9ZM1283.7 1748.21C1238.76 1748.21 1202.2 1711.64 1202.2 1666.7C1202.2 1621.76 1238.76 1585.2 1283.7 1585.2H1744.44V1748.21H1283.7Z"
      stroke="#1F3969" stroke-width="4" stroke-miterlimit="10" stroke-linecap="round" stroke-linejoin="round"/>
  <path
      d="M1283.7 1748.21C1238.76 1748.21 1202.2 1711.65 1202.2 1666.7C1202.2 1621.76 1238.76 1585.2 1283.7 1585.2H1752.32L1771.12 1557H1283.7C1223.11 1557 1174 1606.12 1174 1666.7C1174 1727.29 1223.12 1776.4 1283.7 1776.4H1771.12L1752.32 1748.2H1283.7V1748.21Z"
      fill="#FF3E3E"/>
  <path
      d="M1283.7 1748.21C1238.76 1748.21 1202.2 1711.65 1202.2 1666.7C1202.2 1621.76 1238.76 1585.2 1283.7 1585.2H1752.32L1771.12 1557H1283.7C1223.11 1557 1174 1606.12 1174 1666.7C1174 1727.29 1223.12 1776.4 1283.7 1776.4H1771.12L1752.32 1748.2H1283.7V1748.21Z"
      stroke="#1F3969" stroke-width="4" stroke-miterlimit="10" stroke-linecap="round" stroke-linejoin="round"/>
  <path
      d="M1788.27 2142.21H895.775C887.348 2142.21 879.266 2138.86 873.307 2132.9C867.348 2126.94 864 2118.86 864 2110.43V1992.77C864 1984.35 867.348 1976.27 873.307 1970.31C879.266 1964.35 887.348 1961 895.775 1961H1788.27C1796.7 1961 1804.78 1964.35 1810.74 1970.31C1816.7 1976.27 1820.05 1984.35 1820.05 1992.77V2110.43C1820.05 2114.6 1819.23 2118.73 1817.63 2122.59C1816.03 2126.45 1813.69 2129.95 1810.74 2132.9C1807.79 2135.85 1804.29 2138.19 1800.43 2139.79C1796.58 2141.39 1792.44 2142.21 1788.27 2142.21Z"
      fill="#50B56F"/>
  <path
      d="M1136.63 2057.18H1124.64V2083.22H1116.5V2020.84H1136.63C1151.31 2020.84 1158.2 2028.9 1158.2 2039.1C1158.2 2048.59 1152.11 2057.18 1136.63 2057.18ZM1136.63 2050.46C1145.94 2050.46 1149.88 2046.08 1149.88 2039.09C1149.88 2031.85 1145.94 2027.55 1136.63 2027.55H1124.64V2050.46H1136.63ZM1181.04 2020.84H1190.07L1205.47 2052.44L1220.86 2020.84H1229.9L1209.58 2059.69V2083.22H1201.43V2059.69L1181.04 2020.84ZM1252.55 2020.84H1294.79V2027.47H1277.79V2083.22H1269.65V2027.47H1252.55V2020.84ZM1362.64 2054.94H1330.87V2083.22H1322.73V2020.84H1330.87V2048.23H1362.64V2020.84H1370.79V2083.22H1362.64V2054.94ZM1430.76 2083.84C1413.22 2083.84 1399.44 2070.69 1399.44 2051.98C1399.44 2033.28 1413.22 2020.12 1430.76 2020.12C1448.39 2020.12 1462.09 2033.28 1462.09 2051.98C1462.09 2070.69 1448.4 2083.84 1430.76 2083.84ZM1430.76 2076.78C1443.92 2076.78 1453.76 2067.2 1453.76 2051.98C1453.76 2036.68 1443.92 2027.2 1430.76 2027.2C1417.61 2027.2 1407.76 2036.69 1407.76 2051.98C1407.76 2067.2 1417.61 2076.78 1430.76 2076.78ZM1539.79 2020.75V2083.22H1531.64L1498.89 2033.55V2083.22H1490.74V2020.75H1498.89L1531.64 2070.33V2020.75H1539.79Z"
      fill="white"/>
  <path
      d="M1788.27 2142.21H895.775C887.348 2142.21 879.266 2138.86 873.307 2132.9C867.348 2126.94 864 2118.86 864 2110.43V1992.77C864 1984.35 867.348 1976.27 873.307 1970.31C879.266 1964.35 887.348 1961 895.775 1961H1788.27C1796.7 1961 1804.78 1964.35 1810.74 1970.31C1816.7 1976.27 1820.05 1984.35 1820.05 1992.77V2110.43C1820.05 2114.6 1819.23 2118.73 1817.63 2122.59C1816.03 2126.45 1813.69 2129.95 1810.74 2132.9C1807.79 2135.85 1804.29 2138.19 1800.43 2139.79C1796.58 2141.39 1792.44 2142.21 1788.27 2142.21V2142.21Z"
      stroke="#1F3969" stroke-width="4" stroke-miterlimit="10" stroke-linecap="round" stroke-linejoin="round"/>
  <path
      d="M1751.27 1957.21H858.775C850.348 1957.21 842.266 1953.86 836.307 1947.9C830.348 1941.94 827 1933.86 827 1925.43V1807.77C827 1799.35 830.348 1791.27 836.307 1785.31C842.266 1779.35 850.348 1776 858.775 1776H1751.27C1759.7 1776 1767.78 1779.35 1773.74 1785.31C1779.7 1791.27 1783.05 1799.35 1783.05 1807.77V1925.43C1783.05 1929.6 1782.23 1933.73 1780.63 1937.59C1779.03 1941.45 1776.69 1944.95 1773.74 1947.9C1770.79 1950.85 1767.29 1953.19 1763.43 1954.79C1759.58 1956.39 1755.44 1957.21 1751.27 1957.21Z"
      fill="#3ABEAA"/>
  <path
      d="M1751.27 1957.21H858.775C850.348 1957.21 842.266 1953.86 836.307 1947.9C830.348 1941.94 827 1933.86 827 1925.43V1807.77C827 1799.35 830.348 1791.27 836.307 1785.31C842.266 1779.35 850.348 1776 858.775 1776H1751.27C1759.7 1776 1767.78 1779.35 1773.74 1785.31C1779.7 1791.27 1783.05 1799.35 1783.05 1807.77V1925.43C1783.05 1929.6 1782.23 1933.73 1780.63 1937.59C1779.03 1941.45 1776.69 1944.95 1773.74 1947.9C1770.79 1950.85 1767.29 1953.19 1763.43 1954.79C1759.58 1956.39 1755.44 1957.21 1751.27 1957.21V1957.21Z"
      stroke="#1F3969" stroke-width="4" stroke-miterlimit="10" stroke-linecap="round" stroke-linejoin="round"/>
  <path
      d="M1409.22 1672.44L1395.05 1514.29H1162.85L1148.68 1672.44C1145.39 1709.18 1123.29 1744.37 1088.64 1772.44L1088.59 1772.77H1469.31L1469.26 1772.44C1434.61 1744.37 1412.51 1709.18 1409.22 1672.44Z"
      fill="#BFDDE2"/>
  <path opacity="0.28" d="M1162.85 1514.29L1154.35 1609.21H1403.55L1395.06 1514.29H1162.85Z" fill="#1F3969"
        stroke="#1F3969" stroke-width="4" stroke-miterlimit="10" stroke-linecap="round" stroke-linejoin="round"/>
  <path
      d="M1409.22 1672.44L1395.05 1514.29H1162.85L1148.68 1672.44C1145.39 1709.18 1123.29 1744.37 1088.64 1772.44L1088.59 1772.77H1469.31L1469.26 1772.44C1434.61 1744.37 1412.51 1709.18 1409.22 1672.44V1672.44Z"
      stroke="#1F3969" stroke-width="4" stroke-miterlimit="10" stroke-linecap="round" stroke-linejoin="round"/>
  <path
      d="M2021.51 1537.79H536.392C505.247 1537.79 479.995 1512.54 479.995 1481.39V513.243C479.995 482.098 505.247 456.846 536.392 456.846H2021.51C2052.66 456.846 2077.91 482.098 2077.91 513.243V1481.39C2077.91 1512.54 2052.66 1537.79 2021.51 1537.79Z"
      fill="white"/>
  <path
      d="M2021.51 1537.79H536.392C505.247 1537.79 479.995 1512.54 479.995 1481.39V513.243C479.995 482.098 505.247 456.846 536.392 456.846H2021.51C2052.66 456.846 2077.91 482.098 2077.91 513.243V1481.39C2077.91 1512.54 2052.66 1537.79 2021.51 1537.79Z"
      fill="#BFDDE2"/>
  <path
      d="M2021.51 1537.79H536.392C505.247 1537.79 479.995 1512.54 479.995 1481.39V513.243C479.995 482.098 505.247 456.846 536.392 456.846H2021.51C2052.66 456.846 2077.91 482.098 2077.91 513.243V1481.39C2077.91 1512.54 2052.66 1537.79 2021.51 1537.79Z"
      stroke="#1F3969" stroke-width="4" stroke-miterlimit="10" stroke-linecap="round" stroke-linejoin="round"/>
  <path d="M1998.01 536.739V1357.27H559.889V536.739L1998.01 536.739Z" fill="#F6F9FD"/>
  <path opacity="0.28"
        d="M611.641 456.846V1108.2C611.641 1118.17 615.602 1127.73 622.653 1134.78C629.704 1141.84 639.267 1145.8 649.239 1145.8H1537.83C1547.81 1145.8 1557.37 1141.84 1564.42 1134.78C1571.47 1127.73 1575.43 1118.17 1575.43 1108.2V456.846H611.641Z"
        fill="#1F3969" stroke="#1F3969" stroke-width="4" stroke-miterlimit="10" stroke-linecap="round"
        stroke-linejoin="round"/>
  <path d="M1998.01 536.739V1357.27H559.889V536.739L1998.01 536.739Z" stroke="#1F3969" stroke-width="4"
        stroke-miterlimit="10" stroke-linecap="round" stroke-linejoin="round"/>
  <path d="M1215.76 1447.09H1342.14" stroke="#1F3969" stroke-width="4" stroke-miterlimit="10" stroke-linecap="round"
        stroke-linejoin="round"/>
  <path
      d="M1580.14 1094.1H691.543C681.572 1094.1 672.008 1090.14 664.957 1083.09C657.906 1076.04 653.945 1066.47 653.945 1056.5V359.598C653.945 349.626 657.906 340.063 664.957 333.012C672.008 325.961 681.572 322 691.543 322H1580.13C1590.11 322 1599.67 325.961 1606.72 333.012C1613.77 340.063 1617.73 349.626 1617.73 359.598V1056.51C1617.73 1061.44 1616.76 1066.33 1614.87 1070.89C1612.98 1075.45 1610.21 1079.6 1606.72 1083.09C1603.23 1086.58 1599.09 1089.35 1594.53 1091.24C1589.96 1093.13 1585.08 1094.1 1580.14 1094.1Z"
      fill="#1F1926"/>
  <path
      d="M1617.74 413.429H653.945V359.598C653.945 349.626 657.906 340.063 664.957 333.012C672.008 325.961 681.572 322 691.543 322H1580.13C1590.11 322 1599.67 325.961 1606.72 333.012C1613.77 340.063 1617.73 349.626 1617.73 359.598V413.429H1617.74Z"
      stroke="#1F3969" stroke-width="4" stroke-miterlimit="10" stroke-linecap="round" stroke-linejoin="round"/>
  <path
      d="M1617.74 431.335H653.945V359.598C653.945 349.626 657.906 340.063 664.957 333.012C672.008 325.961 681.572 322 691.543 322H1580.13C1590.11 322 1599.67 325.961 1606.72 333.012C1613.77 340.063 1617.73 349.626 1617.73 359.598V431.335H1617.74Z"
      fill="#D0DDF0"/>
  <path
      d="M1617.74 431.335H653.945V359.598C653.945 349.626 657.906 340.063 664.957 333.012C672.008 325.961 681.572 322 691.543 322H1580.13C1590.11 322 1599.67 325.961 1606.72 333.012C1613.77 340.063 1617.73 349.626 1617.73 359.598V431.335H1617.74Z"
      stroke="#1F3969" stroke-width="4" stroke-miterlimit="10" stroke-linecap="round" stroke-linejoin="round"/>
  <path
      d="M1617.74 431.335H653.945V359.598C653.945 349.626 657.906 340.063 664.957 333.012C672.008 325.961 681.572 322 691.543 322H1580.13C1590.11 322 1599.67 325.961 1606.72 333.012C1613.77 340.063 1617.73 349.626 1617.73 359.598V431.335H1617.74Z"
      stroke="#1F3969" stroke-width="4" stroke-miterlimit="10" stroke-linecap="round" stroke-linejoin="round"/>
  <path
      d="M1580.14 1094.1H691.543C681.572 1094.1 672.008 1090.14 664.957 1083.09C657.906 1076.04 653.945 1066.47 653.945 1056.5V359.598C653.945 349.626 657.906 340.063 664.957 333.012C672.008 325.961 681.572 322 691.543 322H1580.13C1590.11 322 1599.67 325.961 1606.72 333.012C1613.77 340.063 1617.73 349.626 1617.73 359.598V1056.51C1617.73 1061.44 1616.76 1066.33 1614.87 1070.89C1612.98 1075.45 1610.21 1079.6 1606.72 1083.09C1603.23 1086.58 1599.09 1089.35 1594.53 1091.24C1589.96 1093.13 1585.08 1094.1 1580.14 1094.1V1094.1Z"
      stroke="#1F3969" stroke-width="4" stroke-miterlimit="10" stroke-linecap="round" stroke-linejoin="round"/>
  <path opacity="0.28"
        d="M2043.95 1260.5H1498.7C1488.73 1260.5 1479.17 1256.54 1472.12 1249.49C1465.06 1242.43 1461.1 1232.87 1461.1 1222.9V645.089C1461.1 635.117 1465.06 625.554 1472.12 618.503C1479.17 611.452 1488.73 607.491 1498.7 607.491H2043.95C2053.92 607.491 2063.48 611.452 2070.53 618.503C2077.58 625.554 2081.55 635.117 2081.55 645.089V1222.9C2081.55 1232.87 2077.58 1242.43 2070.53 1249.49C2063.48 1256.54 2053.92 1260.5 2043.95 1260.5Z"
        fill="#1F3969" stroke="#1F3969" stroke-width="4" stroke-miterlimit="10" stroke-linecap="round"
        stroke-linejoin="round"/>
  <path
      d="M2081.55 1227.6H1536.3C1526.33 1227.6 1516.77 1223.64 1509.72 1216.58C1502.67 1209.53 1498.71 1199.97 1498.71 1190V612.188C1498.71 602.217 1502.67 592.653 1509.72 585.602C1516.77 578.552 1526.33 574.59 1536.3 574.59H2081.55C2091.52 574.59 2101.08 578.552 2108.14 585.602C2115.19 592.653 2119.15 602.217 2119.15 612.188V1190C2119.15 1199.97 2115.19 1209.53 2108.14 1216.58C2101.08 1223.64 2091.52 1227.6 2081.55 1227.6Z"
      fill="#3ABEAA"/>
  <path
      d="M2081.55 1227.6H1536.3C1526.33 1227.6 1516.77 1223.64 1509.72 1216.58C1502.67 1209.53 1498.71 1199.97 1498.71 1190V612.188C1498.71 602.217 1502.67 592.653 1509.72 585.603C1516.77 578.552 1526.33 574.59 1536.3 574.59H2081.55C2091.52 574.59 2101.08 578.552 2108.14 585.603C2115.19 592.653 2119.15 602.217 2119.15 612.188V1190C2119.15 1199.97 2115.19 1209.53 2108.14 1216.58C2101.08 1223.64 2091.52 1227.6 2081.55 1227.6Z"
      stroke="#1F3969" stroke-width="4" stroke-miterlimit="10" stroke-linecap="round" stroke-linejoin="round"/>
  <path opacity="0.34"
        d="M2000.42 753.525H1617.06C1610.62 753.525 1604.44 750.967 1599.89 746.413C1595.34 741.859 1592.78 735.682 1592.78 729.242V692.584C1592.78 686.143 1595.34 679.967 1599.89 675.413C1604.44 670.859 1610.62 668.3 1617.06 668.3H2000.42C2006.86 668.3 2013.03 670.859 2017.59 675.413C2022.14 679.967 2024.7 686.143 2024.7 692.584V729.242C2024.7 735.682 2022.14 741.859 2017.59 746.413C2013.03 750.967 2006.86 753.525 2000.42 753.525V753.525ZM1831.95 891.261H1617.44C1614.25 891.261 1611.09 890.633 1608.14 889.412C1605.2 888.192 1602.52 886.403 1600.27 884.148C1598.01 881.893 1596.22 879.216 1595 876.27C1593.78 873.324 1593.15 870.166 1593.15 866.977V830.319C1593.15 827.13 1593.78 823.972 1595 821.026C1596.22 818.08 1598.01 815.403 1600.27 813.148C1602.52 810.893 1605.2 809.104 1608.14 807.884C1611.09 806.664 1614.25 806.036 1617.44 806.036H1831.95C1838.39 806.036 1844.57 808.594 1849.12 813.148C1853.67 817.702 1856.23 823.879 1856.23 830.319V866.977C1856.23 873.418 1853.67 879.594 1849.12 884.148C1844.57 888.702 1838.39 891.261 1831.95 891.261V891.261ZM2000.79 891.261H1917.82C1911.38 891.261 1905.2 888.702 1900.65 884.148C1896.09 879.594 1893.53 873.418 1893.53 866.977V830.319C1893.53 823.879 1896.09 817.702 1900.65 813.148C1905.2 808.594 1911.38 806.036 1917.82 806.036H2000.79C2007.23 806.036 2013.41 808.594 2017.96 813.148C2022.52 817.702 2025.08 823.879 2025.08 830.319V866.977C2025.08 873.418 2022.52 879.594 2017.96 884.148C2013.41 888.702 2007.23 891.261 2000.79 891.261Z"
        stroke="white" stroke-width="2" stroke-miterlimit="10" stroke-linecap="round" stroke-linejoin="round"/>
  <path d="M1592.78 1135.79H1855.86M1592.78 1034.37H2024.7H1592.78ZM1592.78 1085.08H2024.7H1592.78Z" stroke="white"
        stroke-width="2" stroke-miterlimit="10" stroke-linecap="round" stroke-linejoin="round"/>
  <path
      d="M748.286 395.468C758.669 395.468 767.085 387.052 767.085 376.669C767.085 366.287 758.669 357.87 748.286 357.87C737.904 357.87 729.487 366.287 729.487 376.669C729.487 387.052 737.904 395.468 748.286 395.468Z"
      fill="#1F1926"/>
  <path
      d="M813.545 395.468C823.927 395.468 832.344 387.052 832.344 376.669C832.344 366.287 823.927 357.87 813.545 357.87C803.163 357.87 794.746 366.287 794.746 376.669C794.746 387.052 803.163 395.468 813.545 395.468Z"
      fill="#1F1926"/>
  <path
      d="M878.804 395.468C889.186 395.468 897.603 387.052 897.603 376.669C897.603 366.287 889.186 357.87 878.804 357.87C868.421 357.87 860.005 366.287 860.005 376.669C860.005 387.052 868.421 395.468 878.804 395.468Z"
      fill="#1F1926"/>
  <path d="M1207.64 518.095H1268.4" stroke="white" stroke-width="4" stroke-miterlimit="10" stroke-linecap="round"
        stroke-linejoin="round"/>
  <path d="M897.607 518.095H1162.56" stroke="#7BFFA0" stroke-width="4" stroke-miterlimit="10" stroke-linecap="round"
        stroke-linejoin="round"/>
  <path d="M888.197 981.297H1090.56M767.075 518.095H859.999H767.075Z" stroke="#9169FF" stroke-width="4"
        stroke-miterlimit="10" stroke-linecap="round" stroke-linejoin="round"/>
  <path d="M767.075 981.301H832.331" stroke="#7BFFA0" stroke-width="4" stroke-miterlimit="10" stroke-linecap="round"
        stroke-linejoin="round"/>
  <path d="M1162.55 575.997H1200.22" stroke="white" stroke-width="4" stroke-miterlimit="10" stroke-linecap="round"
        stroke-linejoin="round"/>
  <path d="M989.277 575.997H1117.24" stroke="#9169FF" stroke-width="4" stroke-miterlimit="10" stroke-linecap="round"
        stroke-linejoin="round"/>
  <path d="M813.54 575.997H943.93" stroke="#FFC47D" stroke-width="4" stroke-miterlimit="10" stroke-linecap="round"
        stroke-linejoin="round"/>
  <path d="M1015.37 633.898H1127.4" stroke="white" stroke-width="4" stroke-miterlimit="10" stroke-linecap="round"
        stroke-linejoin="round"/>
  <path d="M874.082 633.898H979.742" stroke="#FF5757" stroke-width="4" stroke-miterlimit="10" stroke-linecap="round"
        stroke-linejoin="round"/>
  <path d="M1030.31 691.8H1053.51" stroke="white" stroke-width="4" stroke-miterlimit="10" stroke-linecap="round"
        stroke-linejoin="round"/>
  <path d="M937.158 691.8H989.278" stroke="#9169FF" stroke-width="4" stroke-miterlimit="10" stroke-linecap="round"
        stroke-linejoin="round"/>
  <path d="M813.54 691.8H897.6" stroke="#7BFFA0" stroke-width="4" stroke-miterlimit="10" stroke-linecap="round"
        stroke-linejoin="round"/>
  <path d="M994.023 749.701H1143.92" stroke="#FFC47D" stroke-width="4" stroke-miterlimit="10" stroke-linecap="round"
        stroke-linejoin="round"/>
  <path d="M813.54 749.701H948.08" stroke="#FF5757" stroke-width="4" stroke-miterlimit="10" stroke-linecap="round"
        stroke-linejoin="round"/>
  <path d="M1167.42 807.603H1248.92" stroke="#9169FF" stroke-width="4" stroke-miterlimit="10" stroke-linecap="round"
        stroke-linejoin="round"/>
  <path d="M994.023 807.603H1124.44" stroke="#FF5757" stroke-width="4" stroke-miterlimit="10" stroke-linecap="round"
        stroke-linejoin="round"/>
  <path d="M874.082 807.603H948.075" stroke="#7BFFA0" stroke-width="4" stroke-miterlimit="10" stroke-linecap="round"
        stroke-linejoin="round"/>
  <path d="M1053.26 865.501H1124.43" stroke="white" stroke-width="4" stroke-miterlimit="10" stroke-linecap="round"
        stroke-linejoin="round"/>
  <path d="M874.082 865.501H1004.47" stroke="#9169FF" stroke-width="4" stroke-miterlimit="10" stroke-linecap="round"
        stroke-linejoin="round"/>
  <path d="M1238.02 923.399H1319.29" stroke="white" stroke-width="4" stroke-miterlimit="10" stroke-linecap="round"
        stroke-linejoin="round"/>
  <path d="M989.277 923.399H1194.04" stroke="#FFC47D" stroke-width="4" stroke-miterlimit="10" stroke-linecap="round"
        stroke-linejoin="round"/>
  <path d="M813.54 923.399H943.93" stroke="white" stroke-width="4" stroke-miterlimit="10" stroke-linecap="round"
        stroke-linejoin="round"/>
  <path d="M643 2144H1732.73V2172.41H643V2144Z" fill="#6600FF"/>
  <path d="M643 2279.17H1732.73V2307.57H643V2279.17Z" fill="#6600FF"/>
  <path
      d="M682.536 2205H1695.17H682.536ZM682.536 2242.67H1695.17H682.536ZM1704.71 2172.4H671.008C677.033 2187.68 680.553 2206.03 680.553 2225.78C680.553 2245.54 677.033 2263.89 671.008 2279.16H1704.71C1698.68 2263.89 1695.16 2245.54 1695.16 2225.78C1695.17 2206.03 1698.68 2187.68 1704.71 2172.4Z"
      stroke="#1F3969" stroke-width="4" stroke-miterlimit="10" stroke-linecap="round" stroke-linejoin="round" fill="#BFDDE2"/>
  <path d="M704 2308H1793.73V2336.41H704V2308Z" fill="#664FFF"/>
  <path d="M704 2443.17H1793.73V2471.57H704V2443.17Z" fill="#664FFF"/>
  <path
      d="M743.536 2369H1756.17H743.536ZM743.536 2406.67H1756.17H743.536ZM1765.71 2336.4H732.008C738.033 2351.68 741.553 2370.03 741.553 2389.78C741.553 2409.54 738.033 2427.89 732.008 2443.16H1765.71C1759.68 2427.89 1756.16 2409.54 1756.16 2389.78C1756.17 2370.03 1759.68 2351.68 1765.71 2336.4Z"
      stroke="#1F3969" stroke-width="4" stroke-miterlimit="10" stroke-linecap="round" stroke-linejoin="round" fill="#BFDDE2"/>
  <path
      d="M800 1246.64V1889.93C800 1926.59 771.313 1956.57 736.249 1956.57H63.7664C28.7018 1956.57 0 1926.59 0 1889.93V1246.64C0 1209.99 28.7018 1180 63.7664 1180H736.249C771.313 1180 800 1209.99 800 1246.64Z"
      fill="#6600FF"/>
  <path d="M800 1246.66V1320.6H0V1246.66C0 1210 28.7018 1180 63.7664 1180H736.249C771.313 1180 800 1210 800 1246.66Z"
        fill="#1F1926"/>
  <path
      d="M704.633 1250.02C704.633 1262.81 714.508 1273.19 726.704 1273.19C738.884 1273.19 748.775 1262.81 748.775 1250.02C748.775 1237.24 738.884 1226.87 726.704 1226.87C714.508 1226.87 704.633 1237.24 704.633 1250.02Z"
      fill="#664FFF"/>
  <path
      d="M620.709 1250.02C620.709 1262.81 630.706 1273.19 643.052 1273.19C655.399 1273.19 665.396 1262.81 665.396 1250.02C665.396 1237.24 655.399 1226.87 643.052 1226.87C630.706 1226.87 620.709 1237.24 620.709 1250.02Z"
      fill="#6660FF"/>
  <path
      d="M346.594 1250.04C346.594 1262.77 332.793 1273.19 315.924 1273.19H80.8069C63.9383 1273.19 50.1367 1262.77 50.1367 1250.04C50.1367 1237.29 63.9383 1226.87 80.8069 1226.87H315.924C332.793 1226.87 346.594 1237.29 346.594 1250.04Z"
      fill="#BFDDE2"/>
  <path
      d="M536.648 1430.68H92.2517C83.4448 1430.68 76.2949 1423.23 76.2949 1414.05C76.2949 1404.87 83.4448 1397.44 92.2517 1397.44H536.648C545.455 1397.44 552.589 1404.87 552.589 1414.05C552.589 1423.23 545.455 1430.68 536.648 1430.68Z"
      fill="#E5E7E8"/>
  <path
      d="M445.099 1508.07H177.246C168.441 1508.07 161.309 1500.61 161.309 1491.44C161.309 1482.26 168.441 1474.82 177.246 1474.82H445.099C453.903 1474.82 461.036 1482.26 461.036 1491.44C461.036 1500.61 453.903 1508.07 445.099 1508.07Z"
      fill="#E5E7E8"/>
  <path
      d="M604.763 1585.45H177.255C168.445 1585.45 161.309 1578 161.309 1568.82C161.309 1559.64 168.445 1552.21 177.255 1552.21H604.763C613.573 1552.21 620.709 1559.64 620.709 1568.82C620.709 1578 613.573 1585.45 604.763 1585.45Z"
      fill="#E5E7E8"/>
  <path
      d="M536.658 1662.83H294.406C285.605 1662.83 278.475 1655.4 278.475 1646.2C278.475 1637.03 285.605 1629.59 294.406 1629.59H536.658C545.459 1629.59 552.589 1637.03 552.589 1646.2C552.589 1655.4 545.459 1662.83 536.658 1662.83Z"
      fill="#E5E7E8"/>
  <path
      d="M678.887 1740.22H177.245C168.441 1740.22 161.309 1732.78 161.309 1723.59C161.309 1714.41 168.441 1706.98 177.245 1706.98H678.887C687.691 1706.98 694.824 1714.41 694.824 1723.59C694.824 1732.78 687.691 1740.22 678.887 1740.22Z"
      fill="#E5E7E8"/>
  <path
      d="M311.049 1817.6H92.2375C83.4384 1817.6 76.2949 1810.17 76.2949 1800.99C76.2949 1791.81 83.4384 1784.36 92.2375 1784.36H311.049C319.833 1784.36 326.976 1791.81 326.976 1800.99C326.976 1810.17 319.833 1817.6 311.049 1817.6Z"
      fill="#E5E7E8"/>
  <path
      d="M536.646 1894.99H177.252C168.444 1894.99 161.309 1887.55 161.309 1878.37C161.309 1869.18 168.444 1861.74 177.252 1861.74H536.646C545.454 1861.74 552.589 1869.18 552.589 1878.37C552.589 1887.55 545.454 1894.99 536.646 1894.99Z"
      fill="#E5E7E8"/>
  <path
      d="M2241.14 91.1763C2237.35 91.1763 2234.27 88.1044 2234.27 84.3135V26.4704C2234.27 19.441 2228.56 13.7253 2221.53 13.7253H1774.47C1767.44 13.7253 1761.73 19.441 1761.73 26.4704V84.3135C1761.73 88.1044 1758.65 91.1763 1754.86 91.1763C1751.07 91.1763 1748 88.1044 1748 84.3135V26.4704C1748 11.8756 1759.87 -0.000205994 1774.47 -0.000205994H2221.53C2236.12 -0.000205994 2248 11.8756 2248 26.4704V84.3135C2248 88.1044 2244.93 91.1763 2241.14 91.1763Z"
      fill="#1F1926"/>
  <path
      d="M1761.73 91.1764V386.601C1761.73 393.627 1767.44 399.346 1774.47 399.346H2221.53C2228.56 399.346 2234.27 393.627 2234.27 386.601V91.1764H1761.73ZM2221.53 413.072H1774.47C1759.87 413.072 1748 401.196 1748 386.601V84.3136C1748 80.5228 1751.07 77.4509 1754.86 77.4509H2241.14C2244.93 77.4509 2248 80.5228 2248 84.3136V386.601C2248 401.196 2236.12 413.072 2221.53 413.072Z"
      fill="#1F1926"/>
  <path
      d="M1815.97 57.0259C1809.66 57.0259 1804.53 51.905 1804.53 45.588C1804.53 39.271 1809.66 34.1501 1815.97 34.1501C1822.29 34.1501 1827.41 39.271 1827.41 45.588C1827.41 51.905 1822.29 57.0259 1815.97 57.0259Z"
      fill="#1F1926"/>
  <path
      d="M1861.07 57.0259C1854.75 57.0259 1849.63 51.905 1849.63 45.588C1849.63 39.271 1854.75 34.1501 1861.07 34.1501C1867.39 34.1501 1872.51 39.271 1872.51 45.588C1872.51 51.905 1867.39 57.0259 1861.07 57.0259Z"
      fill="#1F1926"/>
  <path
      d="M1906.17 57.0259C1899.85 57.0259 1894.73 51.905 1894.73 45.588C1894.73 39.271 1899.85 34.1501 1906.17 34.1501C1912.49 34.1501 1917.61 39.271 1917.61 45.588C1917.61 51.905 1912.49 57.0259 1906.17 57.0259Z"
      fill="#1F1926"/>
  <path
      d="M1930.28 305.935C1928.81 305.935 1927.34 305.467 1926.09 304.503L1856.33 250.696C1854.64 249.395 1853.66 247.389 1853.66 245.261C1853.66 243.134 1854.64 241.127 1856.33 239.827L1926.09 186.02C1929.09 183.703 1933.4 184.261 1935.72 187.261C1938.03 190.261 1937.47 194.572 1934.47 196.886L1871.76 245.261L1934.47 293.637C1937.47 295.951 1938.03 300.261 1935.72 303.261C1934.36 305.016 1932.33 305.935 1930.28 305.935Z"
      fill="#1F1926"/>
  <path
      d="M2065.72 305.935C2063.67 305.935 2061.64 305.016 2060.28 303.261C2057.97 300.261 2058.53 295.951 2061.53 293.637L2124.24 245.261L2061.53 196.886C2058.53 194.572 2057.97 190.261 2060.28 187.261C2062.6 184.261 2066.91 183.703 2069.91 186.02L2139.67 239.827C2141.36 241.127 2142.34 243.134 2142.34 245.261C2142.34 247.389 2141.36 249.395 2139.67 250.696L2069.91 304.503C2068.66 305.467 2067.19 305.935 2065.72 305.935Z"
      fill="#1F1926"/>
  <path
      d="M1972.6 346.938C1972.01 346.938 1971.41 346.859 1970.82 346.699C1967.16 345.719 1964.99 341.957 1965.97 338.294L2016.77 148.673C2017.76 145.013 2021.52 142.84 2025.18 143.823C2028.84 144.804 2031.01 148.565 2030.03 152.225L1979.22 341.85C1978.4 344.915 1975.63 346.938 1972.6 346.938Z"
      fill="#1F1926"/>
  <path
      d="M1104.65 1848.09H1110.82V1884.48C1110.82 1887.73 1110.22 1890.49 1109.03 1892.76C1107.84 1895.03 1106.15 1896.75 1103.98 1897.93C1101.81 1899.11 1099.25 1899.7 1096.3 1899.7C1093.52 1899.7 1091.04 1899.19 1088.87 1898.18C1086.7 1897.15 1084.99 1895.69 1083.75 1893.8C1082.5 1891.92 1081.88 1889.67 1081.88 1887.07H1087.95C1087.95 1888.51 1088.31 1889.77 1089.02 1890.85C1089.75 1891.91 1090.74 1892.74 1092 1893.33C1093.26 1893.93 1094.69 1894.23 1096.3 1894.23C1098.07 1894.23 1099.58 1893.85 1100.83 1893.11C1102.07 1892.36 1103.01 1891.27 1103.66 1889.83C1104.32 1888.37 1104.65 1886.59 1104.65 1884.48V1848.09ZM1125.26 1899H1118.8L1137.49 1848.09H1143.85L1162.55 1899H1156.08L1140.87 1856.14H1140.47L1125.26 1899ZM1127.65 1879.11H1153.7V1884.58H1127.65V1879.11ZM1167.78 1848.09L1182.89 1890.95H1183.49L1198.6 1848.09H1205.07L1186.37 1899H1180.01L1161.32 1848.09H1167.78ZM1210.71 1899H1204.25L1222.94 1848.09H1229.3L1248 1899H1241.53L1226.32 1856.14H1225.92L1210.71 1899ZM1213.1 1879.11H1239.15V1884.58H1213.1V1879.11ZM1283.77 1860.82C1283.47 1858.3 1282.26 1856.34 1280.14 1854.95C1278.02 1853.56 1275.42 1852.86 1272.33 1852.86C1270.08 1852.86 1268.11 1853.23 1266.42 1853.96C1264.74 1854.69 1263.43 1855.69 1262.49 1856.97C1261.56 1858.24 1261.1 1859.69 1261.1 1861.32C1261.1 1862.67 1261.42 1863.84 1262.07 1864.82C1262.73 1865.78 1263.57 1866.59 1264.6 1867.23C1265.63 1867.86 1266.71 1868.38 1267.83 1868.8C1268.96 1869.2 1270 1869.52 1270.94 1869.77L1276.11 1871.16C1277.44 1871.51 1278.91 1871.99 1280.54 1872.6C1282.18 1873.21 1283.74 1874.05 1285.23 1875.11C1286.74 1876.16 1287.98 1877.5 1288.96 1879.14C1289.94 1880.78 1290.43 1882.79 1290.43 1885.18C1290.43 1887.93 1289.71 1890.42 1288.27 1892.64C1286.84 1894.86 1284.75 1896.62 1282 1897.93C1279.27 1899.24 1275.95 1899.89 1272.03 1899.89C1268.39 1899.89 1265.23 1899.31 1262.56 1898.13C1259.91 1896.95 1257.82 1895.31 1256.3 1893.21C1254.79 1891.1 1253.94 1888.66 1253.74 1885.88H1260.1C1260.27 1887.8 1260.91 1889.39 1262.04 1890.65C1263.19 1891.89 1264.63 1892.82 1266.37 1893.43C1268.12 1894.03 1270.01 1894.33 1272.03 1894.33C1274.39 1894.33 1276.5 1893.95 1278.37 1893.18C1280.25 1892.4 1281.73 1891.33 1282.82 1889.95C1283.92 1888.56 1284.46 1886.94 1284.46 1885.08C1284.46 1883.39 1283.99 1882.01 1283.05 1880.95C1282.1 1879.89 1280.86 1879.03 1279.32 1878.37C1277.78 1877.71 1276.11 1877.12 1274.32 1876.63L1268.06 1874.84C1264.08 1873.69 1260.93 1872.06 1258.61 1869.94C1256.29 1867.82 1255.13 1865.04 1255.13 1861.61C1255.13 1858.76 1255.9 1856.28 1257.44 1854.16C1259 1852.02 1261.09 1850.36 1263.71 1849.18C1266.34 1847.99 1269.28 1847.39 1272.53 1847.39C1275.81 1847.39 1278.73 1847.98 1281.28 1849.16C1283.83 1850.32 1285.86 1851.91 1287.35 1853.93C1288.85 1855.95 1289.65 1858.25 1289.73 1860.82H1283.77ZM1341.53 1864H1335.37C1335 1862.23 1334.36 1860.67 1333.45 1859.33C1332.56 1857.98 1331.46 1856.86 1330.17 1855.95C1328.89 1855.02 1327.48 1854.32 1325.92 1853.86C1324.36 1853.39 1322.74 1853.16 1321.05 1853.16C1317.97 1853.16 1315.17 1853.94 1312.67 1855.5C1310.19 1857.06 1308.2 1859.35 1306.73 1862.38C1305.27 1865.42 1304.54 1869.14 1304.54 1873.55C1304.54 1877.95 1305.27 1881.67 1306.73 1884.71C1308.2 1887.74 1310.19 1890.03 1312.67 1891.59C1315.17 1893.15 1317.97 1893.93 1321.05 1893.93C1322.74 1893.93 1324.36 1893.7 1325.92 1893.23C1327.48 1892.77 1328.89 1892.08 1330.17 1891.17C1331.46 1890.24 1332.56 1889.11 1333.45 1887.76C1334.36 1886.41 1335 1884.85 1335.37 1883.09H1341.53C1341.07 1885.69 1340.22 1888.02 1339 1890.08C1337.77 1892.13 1336.24 1893.88 1334.42 1895.32C1332.6 1896.75 1330.55 1897.83 1328.28 1898.58C1326.03 1899.32 1323.62 1899.7 1321.05 1899.7C1316.71 1899.7 1312.84 1898.64 1309.46 1896.51C1306.08 1894.39 1303.42 1891.38 1301.48 1887.47C1299.55 1883.55 1298.58 1878.91 1298.58 1873.55C1298.58 1868.18 1299.55 1863.54 1301.48 1859.62C1303.42 1855.71 1306.08 1852.7 1309.46 1850.58C1312.84 1848.46 1316.71 1847.39 1321.05 1847.39C1323.62 1847.39 1326.03 1847.77 1328.28 1848.51C1330.55 1849.26 1332.6 1850.35 1334.42 1851.79C1336.24 1853.22 1337.77 1854.96 1339 1857.01C1340.22 1859.05 1341.07 1861.38 1341.53 1864ZM1351.49 1899V1848.09H1368.69C1372.67 1848.09 1375.94 1848.77 1378.49 1850.13C1381.04 1851.47 1382.93 1853.32 1384.16 1855.67C1385.38 1858.03 1386 1860.7 1386 1863.7C1386 1866.7 1385.38 1869.36 1384.16 1871.68C1382.93 1874 1381.05 1875.82 1378.51 1877.15C1375.98 1878.46 1372.74 1879.11 1368.79 1879.11H1354.87V1873.55H1368.6C1371.31 1873.55 1373.5 1873.15 1375.16 1872.35C1376.83 1871.56 1378.04 1870.43 1378.79 1868.97C1379.55 1867.5 1379.93 1865.74 1379.93 1863.7C1379.93 1861.66 1379.55 1859.88 1378.79 1858.36C1378.02 1856.83 1376.81 1855.66 1375.13 1854.83C1373.46 1853.98 1371.25 1853.56 1368.5 1853.56H1357.66V1899H1351.49ZM1375.46 1876.13L1387.98 1899H1380.83L1368.5 1876.13H1375.46ZM1402.43 1848.09V1899H1396.27V1848.09H1402.43ZM1414.79 1899V1848.09H1432C1435.99 1848.09 1439.25 1848.81 1441.79 1850.25C1444.34 1851.68 1446.23 1853.61 1447.46 1856.05C1448.68 1858.48 1449.3 1861.2 1449.3 1864.2C1449.3 1867.2 1448.68 1869.92 1447.46 1872.38C1446.25 1874.83 1444.37 1876.79 1441.84 1878.24C1439.3 1879.69 1436.06 1880.41 1432.09 1880.41H1419.77V1874.94H1431.9C1434.63 1874.94 1436.83 1874.47 1438.48 1873.52C1440.14 1872.58 1441.34 1871.3 1442.09 1869.69C1442.85 1868.07 1443.23 1866.24 1443.23 1864.2C1443.23 1862.16 1442.85 1860.34 1442.09 1858.73C1441.34 1857.12 1440.13 1855.86 1438.46 1854.95C1436.78 1854.02 1434.56 1853.56 1431.8 1853.56H1420.96V1899H1414.79ZM1456.44 1853.56V1848.09H1494.62V1853.56H1478.62V1899H1472.45V1853.56H1456.44Z"
      fill="white"/>
  <defs>
    <clipPath id="clip0_93_3">
      <rect width="300" height="300" fill="white" transform="translate(2082 1996.13) rotate(-45)"/>
    </clipPath>
  </defs>
</svg>
