<svg width="1286" height="3846" viewBox="0 0 1286 3846" fill="none" xmlns="http://www.w3.org/2000/svg"
     preserveAspectRatio="xMidYMax meet">
  <path
      d="M574.068 1C550.184 168.333 522.42 513.5 602.429 555.5C702.441 608 1132.84 592 1124.38 659C1115.92 726 1124.38 751.5 1086.07 752C1047.75 752.5 843.253 739 826.335 757.5C809.418 776 792.003 1160.5 842.755 1180C893.507 1199.5 840.765 1513 756.676 1504C672.586 1495 117.299 1532.5 100.879 1512.5C84.4595 1492.5 32.2147 1592.5 36.1953 1607C40.1758 1621.5 -18.0397 2027.5 13.3072 2067C44.6541 2106.5 193.427 2348.5 259.106 2361.5C324.785 2374.5 1238.82 2411 1234.34 2459C1229.86 2507 1207.47 2989.5 1051.73 2952.5C895.995 2915.5 58.0883 2883.5 51.1223 2918C44.1564 2952.5 75.5032 3004 88.44 3011.5C101.377 3019 307.371 3003.5 314.834 3006C322.298 3008.5 1179.11 2957 1186.08 3028C1193.04 3099 1362.22 3714.5 1234.34 3719C1106.47 3723.5 779.564 3760 797.974 3794.5C816.384 3829 786.032 3825 792.003 3844"
      stroke="#6600FF" stroke-width="8"/>
</svg>
