<svg width="48" height="55" viewBox="0 0 48 55" fill="none" xmlns="http://www.w3.org/2000/svg">
  <g clip-path="url(#clip0_741_37)">
    <path d="M47.3893 40.5117C47.766 39.8593 48 39.1242 48 38.4642V15.5514C48 14.8913 47.7663 14.1564 47.3895 13.504L24 27.0078L47.3893 40.5117Z" fill="#00599C"/>
    <path d="M26.0784 53.5205L45.9216 42.0642C46.4932 41.7341 47.0127 41.1642 47.3893 40.5117L24 27.0078L0.610668 40.5118C0.987296 41.1642 1.50698 41.7343 2.07843 42.0642L21.9216 53.5205C23.0646 54.1805 24.9354 54.1805 26.0784 53.5205Z" fill="#004482"/>
    <path d="M47.3895 13.5038C47.0127 12.8513 46.493 12.2814 45.9216 11.9514L26.0784 0.495059C24.9354 -0.16502 23.0646 -0.16502 21.9216 0.495059L2.07843 11.9514C0.935216 12.6113 0 14.2314 0 15.5514V38.4642C0 39.1242 0.233882 39.8593 0.610667 40.5117L24 27.0078L47.3895 13.5038Z" fill="#659AD2"/>
    <path d="M24 43.0078C15.1776 43.0078 8 35.8303 8 27.0078C8 18.1854 15.1776 11.0078 24 11.0078C29.6929 11.0078 35.0022 14.0714 37.8558 19.0028L30.9315 23.0097C29.5032 20.5413 26.8471 19.0078 24 19.0078C19.5887 19.0078 16 22.5965 16 27.0078C16 31.419 19.5887 35.0078 24 35.0078C26.8474 35.0078 29.5035 33.4744 30.9319 31.0055L37.8563 35.0122C35.0027 39.9442 29.6932 43.0078 24 43.0078Z" fill="white"/>
    <path d="M40 26.1189H38.2221V24.3412H36.4445V26.1189H34.6667V27.8966H36.4445V29.6745H38.2221V27.8966H40V26.1189Z" fill="white"/>
    <path d="M46.6667 26.1189H44.8888V24.3412H43.1112V26.1189H41.3333V27.8966H43.1112V29.6745H44.8888V27.8966H46.6667V26.1189Z" fill="white"/>
  </g>
  <defs>
    <clipPath id="clip0_741_37">
      <rect width="48" height="54.0157" fill="white"/>
    </clipPath>
  </defs>
</svg>
