<svg width="48" height="55" viewBox="0 0 48 55" fill="none" xmlns="http://www.w3.org/2000/svg">
  <path d="M48 0L43.6271 48.9878L23.9706 54.4372L4.36829 48.9955L0 0H48Z" fill="#264DE4"/>
  <path d="M39.8834 45.8684L43.6203 4.0061H24V50.2719L39.8834 45.8684Z" fill="#2965F1"/>
  <path d="M10.0142 22.1778L10.5527 28.1869H23.9999V22.1778H10.0142Z" fill="#EBEBEB"/>
  <path d="M24 10.0153H23.9792H8.93201L9.47826 16.0245H24V10.0153Z" fill="#EBEBEB"/>
  <path
      d="M24 44.0361V37.7841L23.9737 37.7911L17.2813 35.984L16.8535 31.1915H13.6015H10.8213L11.6632 40.6266L23.9723 44.0438L24 44.0361Z"
      fill="#EBEBEB"/>
  <path
      d="M31.3788 28.1869L30.6813 35.9802L23.9792 37.7892V44.0409L36.2982 40.6267L36.3886 39.6115L37.8007 23.7915L37.9473 22.1779L39.0321 10.0153H23.9792V16.0245H32.4467L31.8999 22.1779H23.9792V28.1869H31.3788Z"
      fill="white"/>
</svg>
