<svg width="48" height="66" viewBox="0 0 48 66" fill="none" xmlns="http://www.w3.org/2000/svg">
  <path d="M0.0261688 53.2152L8.14425 1.26854C8.24348 0.631456 8.73896 0.129241 9.37463 0.0212493C10.0103 -0.0867422 10.6438 0.223947 10.9477 0.792538L19.3432 16.4515L22.6896 10.0799C22.9488 9.58725 23.4597 9.27877 24.0164 9.27877C24.5731 9.27877 25.084 9.58725 25.3432 10.0799L47.9996 53.2151H0.0261688V53.2152Z" fill="#FFA000"/>
  <path d="M28.0721 32.98L19.3394 16.444L0.0262299 53.2152L28.0721 32.98Z" fill="#F57C00"/>
  <path d="M48 53.2152L41.7822 14.7387C41.6882 14.1862 41.2939 13.7322 40.7599 13.5611C40.2259 13.3901 39.6414 13.5325 39.2448 13.9286L0.0262299 53.2146L21.7269 65.3843C23.0896 66.1451 24.7492 66.1451 26.112 65.3843L48 53.2146V53.2152Z" fill="#FFCA28"/>
  <path d="M41.7821 14.7387C41.6882 14.1861 41.2939 13.7322 40.7598 13.5611C40.2258 13.39 39.6414 13.5324 39.2448 13.9286L31.4608 21.7324L25.3398 10.0796C25.0807 9.58698 24.5698 9.27851 24.0131 9.27851C23.4563 9.27851 22.9455 9.58698 22.6863 10.0796L19.3398 16.4512L10.9439 0.792524C10.6395 0.223782 10.0053 -0.0864042 9.36884 0.0223924C8.73241 0.131189 8.2386 0.634663 8.14047 1.27225L0.0261676 53.2152H0L0.0261676 53.2452L0.239785 53.3501L39.2335 14.3114C39.6298 13.9131 40.2157 13.7699 40.7512 13.9405C41.2866 14.1111 41.6816 14.5668 41.7746 15.1209L47.94 53.2526L48 53.2151L41.7822 14.7386L41.7821 14.7387ZM0.0973737 53.144L8.14425 1.6396C8.24228 1.00201 8.73724 0.498541 9.37312 0.389745C10.009 0.280948 10.6432 0.591034 10.9482 1.15988L19.3432 16.8188L22.6896 10.4472C22.9488 9.95459 23.4597 9.64611 24.0164 9.64611C24.5731 9.64611 25.084 9.95459 25.3432 10.4472L31.34 21.8523L0.0970215 53.144H0.0973737Z" fill="white" fill-opacity="0.2"/>
  <path opacity="0.2" d="M26.1119 65.0175C24.7492 65.7784 23.0896 65.7784 21.7269 65.0175L0.0786547 52.8817L0.0261688 53.2154L21.7268 65.3813C23.0895 66.1421 24.7492 66.1421 26.1119 65.3813L47.9999 53.2154L47.9437 52.8705L26.1119 65.0177V65.0175Z" fill="#A52714"/>
  <path d="M41.72 14.7466C41.6264 14.1942 41.2334 13.7402 40.7013 13.5701C40.1692 13.4 39.5867 13.5414 39.1915 13.9374L31.4343 21.7373L25.3352 10.09C25.0769 9.5975 24.5678 9.28913 24.0131 9.28913C23.4584 9.28913 22.9493 9.5975 22.691 10.09L19.3558 16.4587L10.9897 0.806566C10.6863 0.238076 10.0543 -0.0720601 9.42068 0.0367868C8.78702 0.145634 8.29376 0.648705 8.19609 1.28614L0.110062 53.2063L21.7349 65.3668C23.0928 66.1274 24.7467 66.1274 26.1047 65.3668L47.9162 53.2063L41.72 14.7465V14.7466Z" fill="url(#paint0_linear_741_70)"/>
  <defs>
    <linearGradient id="paint0_linear_741_70" x1="-1.55837" y1="11.2351" x2="58.0994" y2="42.7039" gradientUnits="userSpaceOnUse">
      <stop stop-color="white" stop-opacity="0.1"/>
      <stop offset="0.14" stop-color="white" stop-opacity="0.08"/>
      <stop offset="0.61" stop-color="white" stop-opacity="0.02"/>
      <stop offset="1" stop-color="white" stop-opacity="0"/>
    </linearGradient>
  </defs>
</svg>
