<svg width="48" height="66" viewBox="0 0 48 66" fill="none" xmlns="http://www.w3.org/2000/svg">
  <path fill-rule="evenodd" clip-rule="evenodd" d="M15.4577 50.3311C15.4577 50.3311 12.972 51.7775 17.2285 52.2661C22.3866 52.8551 25.0213 52.7703 30.7036 51.6954C30.7036 51.6954 32.1996 52.6321 34.2879 53.4425C21.546 58.9024 5.45085 53.1266 15.4577 50.3311ZM13.9001 43.2062C13.9001 43.2062 11.1116 45.2702 15.3718 45.7107C20.8819 46.2798 25.2313 46.3262 32.7622 44.8771C32.7622 44.8771 33.802 45.9326 35.4384 46.5092C20.0349 51.0146 2.87936 46.8639 13.9001 43.2062Z" fill="#3174B9"/>
  <path fill-rule="evenodd" clip-rule="evenodd" d="M27.0248 31.1186C30.1659 34.7343 26.2015 37.986 26.2015 37.986C26.2015 37.986 34.1735 33.8715 30.5119 28.7172C27.0934 23.9127 24.4711 21.5259 38.6653 13.2948C38.6648 13.2942 16.3841 18.8572 27.0248 31.1186Z" fill="#CA3132"/>
  <path fill-rule="evenodd" clip-rule="evenodd" d="M43.8763 55.6015C43.8763 55.6015 45.7163 57.1186 41.8496 58.2918C34.4969 60.5188 11.2412 61.1904 4.78139 58.3803C2.46094 57.3696 6.81461 55.9686 8.1843 55.6728C9.61285 55.364 10.4281 55.4201 10.4281 55.4201C7.84579 53.6018 -6.26311 58.9915 3.26268 60.5377C29.2378 64.7494 50.6131 58.6416 43.8763 55.6015ZM16.6535 35.8232C16.6535 35.8232 4.82566 38.6334 12.4656 39.6548C15.6925 40.0862 22.1204 39.9869 28.1127 39.4842C33.0084 39.0734 37.9224 38.1944 37.9224 38.1944C37.9224 38.1944 36.1975 38.9346 34.9477 39.7866C22.9346 42.9465 -0.268731 41.4748 6.41185 38.2446C12.0602 35.5123 16.6535 35.8232 16.6535 35.8232V35.8232ZM37.8733 47.683C50.084 41.3393 44.4384 35.2418 40.4966 36.0635C39.5329 36.2649 39.1005 36.4387 39.1005 36.4387C39.1005 36.4387 39.46 35.8761 40.1435 35.6343C47.9401 32.8943 53.935 43.7175 37.6298 48.0037C37.6293 48.0037 37.8172 47.8341 37.8733 47.683V47.683Z" fill="#3174B9"/>
  <path fill-rule="evenodd" clip-rule="evenodd" d="M30.5119 0C30.5119 0 37.273 6.76534 24.0975 17.1652C13.5314 25.5108 21.6885 30.2678 24.0943 35.705C17.9255 30.1404 13.4007 25.2409 16.436 20.6821C20.8922 13.9901 33.24 10.7449 30.5119 0V0Z" fill="#CA3132"/>
  <path fill-rule="evenodd" clip-rule="evenodd" d="M17.8548 64.8784C29.5736 65.6278 47.5729 64.4622 48 58.9159C48 58.9159 47.1805 61.0182 38.3139 62.6859C28.3103 64.5691 15.97 64.3499 8.65347 63.1421C8.65347 63.1421 10.1527 64.3828 17.8548 64.8784V64.8784Z" fill="#3174B9"/>
</svg>
