<svg width="48" height="48" viewBox="0 0 48 48" fill="none" xmlns="http://www.w3.org/2000/svg">
  <path
      d="M43.3125 0H4.6875C2.09867 0 0 2.09867 0 4.6875V43.3125C0 45.9013 2.09867 48 4.6875 48H43.3125C45.9013 48 48 45.9013 48 43.3125V4.6875C48 2.09867 45.9013 0 43.3125 0Z"
      fill="#F7DF1E"/>
  <path
      d="M31.6053 37.7181C32.5722 39.2968 33.8301 40.4571 36.0549 40.4571C37.9238 40.4571 39.1177 39.523 39.1177 38.2324C39.1177 36.6857 37.891 36.1379 35.8339 35.2381L34.7063 34.7543C31.4514 33.3676 29.2891 31.6305 29.2891 27.9581C29.2891 24.5752 31.8667 22 35.8949 22C38.7627 22 40.8244 22.9981 42.3101 25.6114L38.7977 27.8667C38.0244 26.48 37.1901 25.9337 35.8949 25.9337C34.5737 25.9337 33.7364 26.7718 33.7364 27.8667C33.7364 29.2198 34.5745 29.7676 36.5097 30.6057L37.6373 31.0888C41.4697 32.7322 43.6335 34.4076 43.6335 38.1745C43.6335 42.2354 40.4434 44.4602 36.1592 44.4602C31.9703 44.4602 29.264 42.464 27.9398 39.8476L31.6053 37.7181ZM15.6716 38.109C16.3802 39.3661 17.0248 40.429 18.5745 40.429C20.0564 40.429 20.9912 39.8491 20.9912 37.5947V22.2575H25.5017V37.6556C25.5017 42.3261 22.7634 44.4518 18.7665 44.4518C15.155 44.4518 13.0636 42.5829 12 40.3318L15.6716 38.109Z"
      fill="black"/>
</svg>
