<svg width="48" height="48" viewBox="0 0 48 48" fill="none" xmlns="http://www.w3.org/2000/svg">
  <path
      d="M44.21 36.4421C41.5972 36.3757 39.5741 36.6387 37.8762 37.3571C37.386 37.5528 36.6065 37.5528 36.5383 38.1724C36.8031 38.4345 36.8337 38.8575 37.0635 39.2193C37.455 39.872 38.1375 40.7503 38.7606 41.2082C39.4448 41.7325 40.1317 42.2516 40.8517 42.7086C42.1215 43.4942 43.5607 43.9513 44.7981 44.7343C45.5191 45.1895 46.2357 45.7785 46.9575 46.2688C47.3123 46.5301 47.5395 46.9539 48 47.1173V47.0177C47.7693 46.7241 47.7038 46.2994 47.4774 45.9725L46.4969 45.027C45.5497 43.7547 44.3726 42.644 43.1028 41.7316C42.0577 41.0116 39.7716 40.0328 39.3478 38.8286L39.2814 38.7622C39.9997 38.6949 40.8518 38.4345 41.5342 38.2344C42.6449 37.9417 43.6577 38.0081 44.7973 37.7153C45.3216 37.5843 45.8415 37.42 46.3676 37.2583V36.9638C45.7769 36.3757 45.3557 35.5945 44.7344 35.0387C43.0723 33.6029 41.2406 32.1986 39.3478 31.0233C38.3341 30.3687 37.0303 29.9475 35.9511 29.3909C35.5622 29.1942 34.9068 29.0972 34.6779 28.7704C34.0924 28.0521 33.7629 27.1066 33.3382 26.2563C32.3944 24.4622 31.4778 22.4716 30.6633 20.5744C30.0743 19.302 29.716 18.0314 28.9977 16.8543C25.6333 11.3053 21.9797 7.94437 16.3642 4.64551C15.1574 3.95865 13.7216 3.6659 12.188 3.30587L9.73852 3.17654C9.21594 2.94758 8.6925 2.32626 8.23634 2.03264C6.37325 0.858162 1.57658 -1.68742 0.206354 1.67348C-0.676254 3.79786 1.51191 5.88641 2.26344 6.96389C2.81835 7.71192 3.53754 8.56307 3.92554 9.41247C4.15537 9.96737 4.22004 10.5564 4.44986 11.1427C4.97244 12.5794 5.46093 14.1777 6.14779 15.5182C6.50607 16.2016 6.8967 16.9199 7.3546 17.5386C7.61676 17.9004 8.07292 18.0603 8.17254 18.6501C7.71726 19.3003 7.68143 20.2817 7.42014 21.0978C6.24566 24.7864 6.70444 29.3559 8.36916 32.0667C8.88999 32.8828 10.1326 34.6795 11.7947 33.9909C13.2663 33.4037 12.9404 31.5432 13.3633 29.9117C13.4603 29.5176 13.3965 29.2589 13.5923 29.0002V29.064C14.0476 29.9772 14.5072 30.8572 14.9293 31.773C15.9421 33.3713 17.7056 35.0369 19.1746 36.1441C19.9567 36.7349 20.5762 37.745 21.5558 38.106V38.0081H21.4912C21.2928 37.7153 21.0027 37.5843 20.7423 37.3571C20.1533 36.7689 19.5014 36.0506 19.0443 35.3987C17.6759 33.5697 16.4647 31.545 15.3898 29.4555C14.8638 28.4418 14.4102 27.3338 13.9864 26.3218C13.7889 25.9312 13.7889 25.3422 13.4612 25.1456C12.9701 25.8631 12.2544 26.4844 11.8961 27.3635C11.2748 28.7695 11.2101 30.4989 10.9794 32.2974L10.851 32.3603C9.81105 32.099 9.44927 31.0232 9.05428 30.1101C8.07642 27.7908 7.91213 24.0681 8.76066 21.3923C8.98787 20.7081 9.97097 18.5531 9.5786 17.9012C9.38198 17.2764 8.72833 16.9207 8.37004 16.4288C7.94884 15.8101 7.48743 15.0271 7.19381 14.3402C6.41083 12.513 6.01671 10.4882 5.17342 8.66181C4.77931 7.81067 4.09507 6.9298 3.54104 6.14594C2.91885 5.26508 2.2346 4.64464 1.74261 3.60037C1.58007 3.2412 1.352 2.65396 1.61328 2.26334C1.67708 2.00118 1.8099 1.90331 2.07031 1.83777C2.49327 1.48036 3.70183 1.93477 4.12566 2.13139C5.33597 2.62075 6.3479 3.07779 7.3581 3.7629C7.81513 4.0906 8.30538 4.71105 8.89174 4.87446H9.5786C10.6211 5.10167 11.7965 4.93738 12.7778 5.23275C14.5072 5.78853 16.0741 6.60385 17.4792 7.48384C21.7551 10.1955 25.2812 14.0483 27.6616 18.6501C28.0522 19.3999 28.2182 20.0868 28.5748 20.8689C29.2625 22.4698 30.1128 24.1022 30.7953 25.6691C31.4813 27.2027 32.1349 28.7687 33.1145 30.0428C33.603 30.7279 35.5657 31.087 36.4457 31.4462C37.0967 31.739 38.1104 31.9994 38.6977 32.3585C39.8083 33.0428 40.9147 33.8284 41.9589 34.5808C42.4789 34.9723 44.113 35.7885 44.21 36.4421M10.9104 8.07283C10.4597 8.06814 10.0104 8.12339 9.57423 8.23711V8.30265H9.63715C9.90018 8.82435 10.3572 9.18613 10.6832 9.64142C10.9462 10.1649 11.1743 10.6839 11.4321 11.2065L11.495 11.1419C11.9555 10.8159 12.1845 10.2933 12.1845 9.50947C11.9861 9.27876 11.9555 9.05331 11.7904 8.82435C11.5981 8.49752 11.1743 8.33499 10.9104 8.07283"
      fill="#5D87A1"/>
</svg>
