<svg width="48" height="55" viewBox="0 0 48 55" fill="none" xmlns="http://www.w3.org/2000/svg">
  <path d="M24.0094 54.1115C23.2848 54.1115 22.5651 53.9214 21.9298 53.5557L15.3103 49.6366C14.3216 49.0837 14.804 48.8882 15.1301 48.7755C16.4484 48.3139 16.7159 48.2097 18.123 47.4106C18.2709 47.3262 18.4644 47.356 18.6158 47.4453L23.7012 50.463C23.8849 50.5623 24.1454 50.5623 24.3157 50.463L44.144 39.0177C44.3277 38.9134 44.4468 38.7 44.4468 38.4816V15.6009C44.4468 15.3726 44.3277 15.1691 44.14 15.0549L24.3196 3.61948C24.136 3.51029 23.8928 3.51029 23.7092 3.61948L3.89271 15.0549C3.70063 15.1641 3.57854 15.3775 3.57854 15.5959V38.4767C3.57854 38.6951 3.69765 38.9035 3.88626 39.0077L9.3161 42.1445C12.2643 43.6186 14.066 41.8815 14.066 40.1344V17.5514C14.066 17.2288 14.3191 16.9807 14.6417 16.9807H17.1531C17.4658 16.9807 17.7239 17.2288 17.7239 17.5514V40.1443C17.7239 44.0753 15.5798 46.3336 11.8523 46.3336C10.7058 46.3336 9.8025 46.3336 7.28115 45.0927L2.07962 42.0949C0.794128 41.3504 0 39.9607 0 38.4767V15.5959C0 14.1069 0.794128 12.7172 2.07962 11.9826L21.9278 0.532313C23.1835 -0.177438 24.8512 -0.177438 26.097 0.532313L45.9204 11.9876C47.2009 12.7271 48 14.1119 48 15.6009V38.4816C48 39.9657 47.2009 41.3504 45.9204 42.0949L26.097 53.5452C25.4617 53.9125 24.742 54.1011 24.0074 54.1011" fill="#689F63"/>
  <path d="M30.1341 38.3451C21.4583 38.3451 19.6393 34.3626 19.6393 31.0223C19.6393 30.7046 19.8954 30.4515 20.2135 30.4515H22.7746C23.0575 30.4515 23.2957 30.6575 23.3404 30.9369C23.7275 33.5466 24.879 34.8629 30.1252 34.8629C34.3043 34.8629 36.0811 33.9189 36.0811 31.7028C36.0811 30.4272 35.5749 29.4792 29.0829 28.8439C23.6531 28.3079 20.2979 27.1117 20.2979 22.7688C20.2979 18.7684 23.6729 16.386 29.3261 16.386C35.6742 16.386 38.8209 18.5897 39.218 23.3247C39.2328 23.4885 39.1733 23.6473 39.0641 23.7665C38.9549 23.8806 38.801 23.9501 38.6422 23.9501H36.0663C35.7982 23.9501 35.565 23.7615 35.5104 23.5034C34.89 20.7587 33.391 19.8802 29.3162 19.8802C24.7549 19.8802 24.2238 21.4685 24.2238 22.6596C24.2238 24.104 24.8492 24.5258 31.0037 25.3398C37.0986 26.1488 39.9922 27.2904 39.9922 31.5737C39.9922 35.8918 36.3889 38.3685 30.1053 38.3685" fill="#689F63"/>
</svg>
