<svg width="48" height="43" viewBox="0 0 48 43" fill="none" xmlns="http://www.w3.org/2000/svg">
  <g clip-path="url(#clip0_735_626)">
    <path d="M23.9999 25.6315C26.3628 25.6315 28.2782 23.716 28.2782 21.3532C28.2782 18.9904 26.3628 17.075 23.9999 17.075C21.6371 17.075 19.7217 18.9904 19.7217 21.3532C19.7217 23.716 21.6371 25.6315 23.9999 25.6315Z" fill="#61DAFB"/>
    <path d="M24 30.1184C36.6785 30.1184 46.9565 26.1941 46.9565 21.3532C46.9565 16.5123 36.6785 12.588 24 12.588C11.3214 12.588 1.04346 16.5123 1.04346 21.3532C1.04346 26.1941 11.3214 30.1184 24 30.1184Z" stroke="#61DAFB"/>
    <path d="M16.4091 25.7358C22.7484 36.7157 31.286 43.6546 35.4783 41.2341C39.6706 38.8137 37.9302 27.9505 31.5909 16.9706C25.2517 5.99066 16.7141 -0.948179 12.5218 1.47227C8.32943 3.89272 10.0699 14.7559 16.4091 25.7358Z" stroke="#61DAFB"/>
    <path d="M16.409 16.9706C10.0698 27.9505 8.32933 38.8137 12.5217 41.2341C16.714 43.6546 25.2516 36.7158 31.5908 25.7358C37.9301 14.7559 39.6705 3.89273 35.4782 1.47228C31.2859 -0.948168 22.7483 5.99067 16.409 16.9706Z" stroke="#61DAFB"/>
  </g>
  <defs>
    <clipPath id="clip0_735_626">
      <rect width="48" height="42.7064" fill="white"/>
    </clipPath>
  </defs>
</svg>
