<svg width="48" height="36" viewBox="0 0 48 36" fill="none" xmlns="http://www.w3.org/2000/svg">
  <g clip-path="url(#clip0_738_11)">
    <path d="M41.3056 20.6791C39.632 20.6878 38.1774 21.0909 36.9595 21.6867C36.5126 20.8017 36.0657 20.0131 35.9869 19.4348C35.8992 18.7601 35.7941 18.3483 35.8992 17.5422C36.0044 16.736 36.4775 15.5882 36.4688 15.5005C36.46 15.4129 36.3636 15.0011 35.3998 14.9923C34.4359 14.9836 33.6035 15.1763 33.5071 15.4304C33.4107 15.6845 33.2267 16.2629 33.1041 16.8587C32.9376 17.7349 31.1763 20.8631 30.1687 22.5016C29.8445 21.862 29.5641 21.3012 29.5027 20.8543C29.4151 20.1796 29.31 19.7678 29.4151 18.9617C29.5203 18.1555 29.9934 17.0077 29.9847 16.92C29.9759 16.8324 29.8795 16.4206 28.9157 16.4118C27.9518 16.4031 27.1194 16.5958 27.023 16.8499C26.9266 17.104 26.8215 17.6999 26.6199 18.2782C26.4184 18.8565 24.0789 24.0789 23.4655 25.4282C23.1501 26.1205 22.8784 26.6725 22.6857 27.0493C22.6857 27.0493 22.6769 27.0756 22.6506 27.1194C22.4841 27.4436 22.3877 27.6188 22.3877 27.6188C22.3877 27.6188 22.3877 27.6188 22.3877 27.6276C22.2563 27.8642 22.1161 28.0832 22.046 28.0832C21.9934 28.0832 21.897 27.4523 22.0635 26.5936C22.414 24.7798 23.2464 21.9584 23.2377 21.862C23.2377 21.8094 23.3954 21.3187 22.6944 21.0646C22.011 20.8105 21.7656 21.2311 21.7043 21.2311C21.6429 21.2311 21.5991 21.3801 21.5991 21.3801C21.5991 21.3801 22.3614 18.2081 20.1446 18.2081C18.7601 18.2081 16.8499 19.724 15.9036 21.0909C15.3078 21.4151 14.0372 22.1073 12.6791 22.8521C12.1621 23.1413 11.6276 23.4304 11.1282 23.7021C11.0931 23.667 11.0581 23.6232 11.023 23.5882C8.34173 20.7229 3.38226 18.6988 3.59255 14.8521C3.67141 13.4502 4.15334 9.76998 13.1172 5.3012C20.4951 1.66483 26.3658 2.6725 27.3823 4.90689C28.8368 8.09638 24.2366 14.0197 16.6134 14.8784C13.7043 15.2026 12.1796 14.081 11.7941 13.6605C11.391 13.2223 11.3297 13.196 11.1807 13.2837C10.9354 13.4151 11.0931 13.8094 11.1807 14.0372C11.4085 14.6331 12.3461 15.6845 13.9321 16.2015C15.3341 16.6572 18.7426 16.9113 22.8697 15.3165C27.4874 13.529 31.0975 8.56078 30.0372 4.39868C28.977 0.175238 21.9671 -1.21797 15.3341 1.13909C11.391 2.54107 7.11501 4.74917 4.03943 7.62321C0.385543 11.0405 -0.19277 14.0109 0.0438126 15.2552C0.893758 19.6714 6.98357 22.5454 9.4195 24.6747C9.29683 24.7448 9.18291 24.8061 9.08653 24.8587C7.86857 25.4633 3.22454 27.8905 2.06791 30.4578C0.753561 33.3669 2.2782 35.4523 3.28587 35.7327C6.41402 36.6002 9.62979 35.0405 11.356 32.4644C13.0821 29.8883 12.8719 26.5411 12.0745 25.0077C12.0657 24.9901 12.057 24.9726 12.0394 24.9551C12.3549 24.7711 12.6791 24.5783 12.9945 24.3943C13.6166 24.0263 14.23 23.6845 14.7558 23.4042C14.4578 24.219 14.2388 25.1917 14.1336 26.5936C14.0022 28.241 14.6769 30.379 15.5619 31.2201C15.9562 31.5882 16.4206 31.5969 16.7185 31.5969C17.7525 31.5969 18.2169 30.7382 18.7338 29.7218C19.3647 28.4775 19.9343 27.0318 19.9343 27.0318C19.9343 27.0318 19.2245 30.9397 21.1522 30.9397C21.8532 30.9397 22.563 30.0285 22.8784 29.5641C22.8784 29.5728 22.8784 29.5728 22.8784 29.5728C22.8784 29.5728 22.8959 29.5465 22.931 29.4852C23.0011 29.3713 23.0449 29.3012 23.0449 29.3012C23.0449 29.3012 23.0449 29.2924 23.0449 29.2837C23.3253 28.793 23.9562 27.6802 24.8938 25.8313C26.103 23.448 27.2683 20.4688 27.2683 20.4688C27.2683 20.4688 27.3735 21.196 27.7328 22.4052C27.943 23.115 28.3812 23.8948 28.7317 24.6484C28.4513 25.0427 28.276 25.2618 28.276 25.2618C28.276 25.2618 28.276 25.2618 28.2848 25.2705C28.057 25.5684 27.8116 25.8927 27.54 26.2081C26.5849 27.3472 25.4458 28.6528 25.2881 29.0296C25.1041 29.4764 25.1479 29.8006 25.4984 30.0635C25.7525 30.2563 26.2081 30.2826 26.6725 30.2563C27.5312 30.195 28.1358 29.9847 28.4337 29.8532C28.8981 29.6867 29.4414 29.4326 29.9496 29.0559C30.8872 28.3636 31.4567 27.3735 31.4042 26.0679C31.3779 25.3494 31.1413 24.6309 30.8521 23.9562C30.9398 23.8335 31.0186 23.7108 31.1062 23.5882C32.5871 21.4239 33.7349 19.0493 33.7349 19.0493C33.7349 19.0493 33.8401 19.7766 34.1993 20.9858C34.3746 21.5991 34.7338 22.2651 35.0493 22.9135C33.6561 24.0438 32.7974 25.3582 32.4907 26.2169C31.9387 27.8116 32.368 28.5301 33.1829 28.6966C33.5509 28.7755 34.0767 28.6002 34.4622 28.4337C34.9529 28.276 35.5312 28.0044 36.0832 27.6013C37.0208 26.9091 37.9233 25.9452 37.8708 24.6396C37.8445 24.0438 37.6867 23.4567 37.4677 22.8872C38.6506 22.3965 40.1752 22.1249 42.1205 22.3527C46.2914 22.8434 47.115 25.4458 46.9573 26.5411C46.7996 27.6364 45.9233 28.2322 45.6342 28.4162C45.345 28.6002 45.2486 28.6615 45.2749 28.793C45.31 28.9858 45.4502 28.977 45.6955 28.9419C46.0372 28.8806 47.8861 28.0569 47.965 26.0416C48.0964 23.4655 45.6429 20.6528 41.3056 20.6791ZM9.13034 31.5268C7.74589 33.0339 5.81818 33.6035 4.98576 33.1216C4.09201 32.6046 4.4425 30.379 6.14239 28.7842C7.17634 27.8116 8.50822 26.9091 9.39321 26.3571C9.59474 26.2344 9.89266 26.0591 10.2519 25.8401C10.3133 25.805 10.3483 25.7875 10.3483 25.7875C10.4184 25.7437 10.4885 25.6999 10.5586 25.6561C11.1807 27.9343 10.5849 29.9408 9.13034 31.5268ZM19.207 24.6747C18.7251 25.8488 17.7174 28.8543 17.1041 28.6878C16.5783 28.5476 16.2541 26.2694 16.9989 24.0175C17.3757 22.8872 18.1731 21.5378 18.6375 21.012C19.391 20.1709 20.2234 19.8905 20.425 20.2322C20.6791 20.6791 19.5049 23.9387 19.207 24.6747ZM27.5225 28.6528C27.3209 28.7579 27.1282 28.828 27.0405 28.7755C26.9792 28.7404 27.1282 28.6002 27.1282 28.6002C27.1282 28.6002 28.1709 27.4786 28.5827 26.9704C28.8193 26.6725 29.0997 26.322 29.3976 25.9277C29.3976 25.9627 29.3976 26.0066 29.3976 26.0416C29.3976 27.3822 28.1008 28.2848 27.5225 28.6528ZM33.9365 27.1895C33.7875 27.0843 33.8138 26.7338 34.3133 25.6385C34.506 25.2092 34.9617 24.4907 35.7415 23.7985C35.8291 24.0789 35.8905 24.3505 35.8817 24.6046C35.8729 26.2957 34.6637 26.9266 33.9365 27.1895Z" fill="#CD6799"/>
  </g>
  <defs>
    <clipPath id="clip0_738_11">
      <rect width="48" height="35.9781" fill="white"/>
    </clipPath>
  </defs>
</svg>
