<svg width="48" height="48" viewBox="0 0 48 48" fill="none" xmlns="http://www.w3.org/2000/svg">
  <path d="M23.496 10.872C15.744 11.1183 13.44 16.656 12.912 19.656C13.6 18.5439 15.768 16.104 18.96 16.104C22.68 16.104 25.512 20.256 27.24 21.552C29.3394 23.1266 33.5579 25.2055 39.096 23.52C43.512 22.176 45.56 17.4879 46.008 15.264C43.872 18.168 40.632 19.9122 36.624 17.856C33.864 16.44 31.8 10.608 23.496 10.872Z" fill="#07B6D5"/>
  <path d="M12.528 24.048C4.77597 24.2943 2.47197 29.832 1.94397 32.832C2.63197 31.7199 4.79997 29.28 7.99197 29.28C11.712 29.28 14.544 33.432 16.272 34.728C18.3713 36.3026 22.5899 38.3815 28.128 36.696C32.544 35.352 34.592 30.6639 35.04 28.44C32.904 31.344 29.664 33.0882 25.656 31.032C22.896 29.616 20.832 23.784 12.528 24.048Z" fill="#07B6D5"/>
</svg>
