<svg width="48" height="48" viewBox="0 0 48 48" fill="none" xmlns="http://www.w3.org/2000/svg">
  <g clip-path="url(#clip0_741_14)">
    <path d="M43.3125 0H4.6875C2.09867 0 0 2.09867 0 4.6875V43.3125C0 45.9013 2.09867 48 4.6875 48H43.3125C45.9013 48 48 45.9013 48 43.3125V4.6875C48 2.09867 45.9013 0 43.3125 0Z" fill="#3178C6"/>
    <path fill-rule="evenodd" clip-rule="evenodd" d="M29.7188 38.1562V42.8437C30.4781 43.2375 31.4062 43.5281 32.4375 43.725C33.4688 43.9219 34.5938 44.0156 35.7188 44.0156C36.8438 44.0156 37.875 43.9125 38.9062 43.6969C39.9375 43.4812 40.7812 43.125 41.5312 42.6656C42.2906 42.1687 42.9375 41.5406 43.3125 40.6969C43.6875 39.8531 43.9781 38.9156 43.9781 37.6969C43.9781 36.8437 43.8469 36.1031 43.5938 35.4469C43.3406 34.7906 42.975 34.2281 42.4688 33.7594C41.9906 33.2625 41.4375 32.8219 40.7812 32.4469C40.125 32.0719 39.375 31.6781 38.5312 31.3219C37.9125 31.0687 37.4062 30.825 36.8438 30.5812C36.3563 30.3375 35.9344 30.0937 35.625 29.85C35.2781 29.5969 35.0156 29.3344 34.8281 29.0625C34.6406 28.7812 34.5469 28.4719 34.5469 28.125C34.5469 27.8062 34.6303 27.5156 34.8 27.2531C34.9697 26.9906 35.2031 26.775 35.5031 26.5875C35.8031 26.4 36.1781 26.2594 36.6281 26.1562C37.0688 26.0531 37.5563 26.0062 38.1281 26.0062C38.5219 26.0062 38.9344 26.0353 39.3469 26.0944C39.7781 26.1534 40.2188 26.2444 40.6594 26.3662C41.1 26.4881 41.5313 26.6381 41.9719 26.8256C42.3844 27.0131 42.7688 27.2287 43.0969 27.4725V23.0662C42.3844 22.7944 41.5969 22.5881 40.7531 22.4569C39.9094 22.3256 38.9719 22.26 37.8469 22.26C36.7219 22.26 35.6906 22.3819 34.6594 22.6162C33.6281 22.8506 32.7844 23.2256 32.0344 23.7412C31.275 24.2475 30.7219 24.8662 30.2531 25.71C29.8125 26.4975 29.5969 27.3975 29.5969 28.5225C29.5969 29.9287 30 31.1475 30.8156 32.085C31.6219 33.1162 32.8781 33.8662 34.4719 34.6162C35.1188 34.8787 35.6906 35.1412 36.2531 35.3944C36.8156 35.6475 37.2844 35.91 37.6594 36.1819C38.0625 36.4537 38.3813 36.7537 38.5969 37.0725C38.8313 37.3912 38.9531 37.7662 38.9531 38.1975C38.9531 38.4975 38.88 38.7787 38.7375 39.0412C38.595 39.3037 38.3719 39.5287 38.0719 39.7162C37.7719 39.9037 37.4063 40.0537 36.9469 40.1662C36.5063 40.2694 36.0094 40.3256 35.3531 40.3256C34.3219 40.3256 33.2906 40.1475 32.3531 39.7912C31.3219 39.435 30.3844 38.9006 29.5406 38.1975L29.7188 38.1562ZM21.8438 26.625H27.8438V22.7812H11.0625V26.625H17.0625V43.7812H21.8438V26.625Z" fill="white"/>
  </g>
  <defs>
    <clipPath id="clip0_741_14">
      <rect width="48" height="48" fill="white"/>
    </clipPath>
  </defs>
</svg>
