<svg version="1.0" xmlns="http://www.w3.org/2000/svg"
 width="100.000000pt" height="100.000000pt" viewBox="0 0 100.000000 100.000000"
 preserveAspectRatio="xMidYMid meet">

<g transform="translate(0.000000,100.000000) scale(0.100000,-0.100000)"
fill="currentColor" stroke="none">
<path d="M415 926 c-50 -19 -91 -63 -104 -113 -16 -61 -8 -258 11 -280 8 -10
19 -29 23 -43 4 -14 14 -34 21 -45 15 -21 19 -82 6 -102 -4 -6 -50 -31 -102
-56 -123 -57 -170 -108 -170 -183 l0 -24 229 0 229 0 -19 50 c-28 75 -25 127
16 223 7 17 6 17 -24 0 -30 -17 -32 -17 -69 3 -29 17 -38 29 -40 55 -2 18 -12
44 -23 57 -10 14 -19 32 -19 42 0 9 -9 27 -20 40 -22 25 -26 50 -10 66 5 5 6
24 0 49 -25 105 0 187 64 216 53 24 116 24 147 0 13 -10 35 -22 47 -26 44 -13
66 -120 43 -202 -6 -20 -6 -35 0 -38 14 -9 11 -53 -5 -62 -7 -4 -19 -25 -25
-45 -7 -20 -19 -42 -27 -48 -7 -7 -14 -26 -14 -43 l0 -30 24 22 c13 12 32 41
42 64 10 23 21 44 25 47 20 17 27 58 25 172 -1 146 -8 161 -91 212 -57 35
-130 43 -190 22z m34 -610 c9 -10 7 -19 -8 -37 -19 -24 -19 -24 -40 -5 -20 18
-20 20 -5 38 20 21 37 23 53 4z m-63 -83 l32 -38 29 28 c16 15 32 27 35 27 3
0 -6 -29 -20 -65 l-26 -65 -148 0 c-161 0 -158 -2 -120 58 14 22 143 92 171
92 8 0 29 -17 47 -37z"/>
<path d="M735 411 c-9 -41 -19 -46 -55 -24 -30 17 -30 17 -57 -10 -27 -27 -27
-27 -9 -58 20 -34 14 -46 -24 -51 -22 -3 -25 -9 -28 -45 -3 -39 -1 -42 27 -48
40 -8 46 -20 27 -47 -23 -32 -20 -44 14 -68 28 -20 32 -20 52 -6 34 24 45 20
52 -19 7 -33 9 -35 47 -35 36 0 40 3 46 30 8 40 17 45 53 24 29 -18 30 -18 59
10 l30 29 -20 28 c-24 34 -19 45 22 54 28 6 30 9 27 48 -3 36 -6 42 -28 45
-38 5 -44 17 -24 51 18 31 18 31 -9 58 -27 27 -27 27 -58 9 -34 -20 -46 -14
-51 24 -3 22 -9 25 -45 28 -39 3 -42 1 -48 -27z m60 -39 c8 -37 54 -56 85 -35
27 19 38 9 17 -15 -25 -27 -4 -78 35 -86 35 -7 37 -26 3 -26 -36 0 -59 -55
-37 -88 19 -29 10 -38 -18 -19 -32 23 -79 4 -87 -34 -7 -36 -23 -38 -23 -4 0
36 -54 59 -88 38 -30 -19 -39 -10 -20 19 22 33 -1 88 -37 88 -35 0 -31 17 5
25 20 4 30 13 30 25 0 10 4 22 10 25 6 4 3 16 -6 31 -21 31 -12 41 19 21 34
-22 87 1 87 38 0 34 17 32 25 -3z"/>
<path d="M725 275 c-50 -49 -15 -135 55 -135 41 0 80 39 80 80 0 41 -39 80
-80 80 -19 0 -40 -9 -55 -25z m85 -30 c15 -18 10 -45 -12 -59 -35 -22 -74 27
-48 59 16 19 44 19 60 0z"/>
</g>
</svg>
