<svg width="250" height="102" viewBox="0 0 250 102" fill="none" xmlns="http://www.w3.org/2000/svg">
  <path
      d="M111.081 95.5592C138.226 94.9058 168.373 92.5537 197.998 85.4974C207.264 83.276 216.269 80.6625 224.752 76.3503C228.536 74.3902 232.321 72.1688 235.714 69.5553C238.194 67.5952 240.282 64.9818 241.848 62.2376C245.633 55.704 244.589 49.0397 238.846 44.2048C235.453 41.33 231.669 38.9778 227.623 37.0178C216.138 31.2681 203.871 27.4786 191.473 24.4732C181.163 21.9904 170.592 20.945 160.02 20.2916C158.715 20.1609 157.41 20.2916 156.366 19.7689C155.453 19.3769 154.409 18.2009 154.409 17.4168C154.539 16.3714 155.583 15.326 156.497 14.8034C157.41 14.2807 158.715 14.542 159.759 14.542C176.986 14.4113 193.561 17.8088 209.613 23.4278C217.443 26.1719 225.143 29.4387 232.713 32.9669C236.628 34.7963 240.413 37.5404 243.545 40.5459C250.331 46.9489 251.767 55.4426 247.851 63.9364C245.894 68.3793 242.762 71.9074 239.107 74.9129C232.452 80.2705 224.882 83.668 217.052 86.4121C201.783 91.7697 185.991 94.9059 169.939 97.1273C150.885 99.8714 131.831 101.309 112.516 101.701C89.5469 102.093 66.5778 100.917 44.1306 95.5592C35.1257 93.4684 26.5122 90.3323 18.5513 85.6281C13.3311 82.4919 8.63283 78.9638 4.97865 73.9982C-0.894148 66.0271 -1.54668 57.6641 2.89054 48.7783C5.37017 43.8127 8.89385 39.7619 12.9396 36.103C23.6411 26.4332 36.1697 19.8996 49.4814 14.6727C66.8388 7.8777 84.9792 4.21885 103.381 1.99741C127.002 -0.877389 150.624 -0.48537 174.246 2.12809C194.605 4.34953 214.703 8.13904 234.018 15.4567C236.497 16.3714 238.846 17.5475 241.196 18.7235C242.892 19.5076 243.936 20.6836 243.284 22.6437C242.762 24.0811 241.065 24.6038 238.977 23.5584C226.84 18.0702 213.92 15.3261 201 12.5819C185.861 9.44577 170.461 7.74702 155.061 6.70164C127.655 5.00289 100.509 7.09366 73.8861 13.6273C59.5304 16.8941 45.6967 21.9904 32.7766 29.4387C26.1207 33.2282 19.8564 37.6711 14.5056 43.2901C12.548 45.3808 10.7209 47.7329 9.15486 50.2157C4.45662 57.9254 5.23966 65.6351 11.504 72.0381C14.6361 75.3049 18.4208 78.049 22.336 80.5318C30.9495 85.8894 40.6069 88.6336 50.5255 90.5936C69.3184 94.3832 88.5029 95.6899 111.081 95.5592Z"
      fill="#0092DB"/>
</svg>
