<svg width="100" height="12" viewBox="0 0 100 12" fill="none" xmlns="http://www.w3.org/2000/svg">
  <path
      d="M96.6193 5.13208C95.6728 5.33467 94.76 5.50348 93.8134 5.70607C92.7654 5.94241 91.7174 6.17876 90.6694 6.48263C89.4523 6.82027 88.2353 7.19167 86.9845 7.59683C86.1055 7.86694 85.2265 8.20458 84.3475 8.47469C83.9081 8.60975 83.4348 8.71104 82.9615 8.81233C82.5896 8.87986 82.2515 8.98115 81.8797 9.04867C81.7782 9.04867 81.643 9.04867 81.5416 9.04867C81.5754 8.91362 81.643 8.7448 81.6768 8.60975C81.7106 8.44093 81.7782 8.30587 81.812 8.13705C81.9473 7.66436 82.0825 7.15791 82.2177 6.68521C82.2853 6.34758 82.3529 6.00994 82.4206 5.70607C82.4544 5.53725 82.4544 5.36843 82.4544 5.16585C82.4544 4.99703 82.4206 4.82821 82.3867 4.65939C82.3529 4.38928 82.2177 4.08541 82.0825 3.84906C81.9811 3.71401 81.8797 3.57895 81.7106 3.47766C81.5416 3.37637 81.3726 3.30884 81.2035 3.27508C81.0683 3.24132 80.8993 3.24132 80.7302 3.20755C80.595 3.20755 80.426 3.20755 80.2907 3.20755C79.9189 3.24132 79.547 3.34261 79.1751 3.47766C78.9047 3.57895 78.6342 3.64648 78.33 3.71401C77.8567 3.84906 77.3834 3.98412 76.9101 4.15294C75.8959 4.49057 74.8817 4.79445 73.8675 5.16585C72.6166 5.60478 71.3996 6.0437 70.1488 6.48263C68.9993 6.8878 67.8499 7.29296 66.7005 7.6306C65.9905 7.86694 65.2806 8.03576 64.5368 8.23835C63.8269 8.44093 63.0832 8.60975 62.3394 8.71104C61.5957 8.81233 60.8181 8.84609 60.0406 8.77856C59.8039 8.7448 59.5673 8.67727 59.3644 8.60975C59.2292 8.54222 59.094 8.47469 58.9588 8.3734C58.8573 8.27211 58.7559 8.20458 58.6545 8.10329C58.6207 8.06953 58.5869 8.002 58.5869 7.96824C58.5193 7.76565 58.4855 7.52931 58.4517 7.32672C58.4179 6.92156 58.4179 6.5164 58.4179 6.14499C58.4179 5.77359 58.4179 5.40219 58.384 5.03079C58.384 4.45681 58.3502 3.91659 58.2826 3.34261C58.1812 2.63357 58.046 1.89077 57.6403 1.24926C57.5389 1.1142 57.4375 0.979148 57.3022 0.844093C57.167 0.709038 57.0318 0.607747 56.8966 0.506456C56.6261 0.303873 56.3218 0.168819 56.0176 0.0675274C55.8485 0.0337637 55.6795 0.0337637 55.5105 0C55.4767 0 55.4429 0 55.4091 0C55.2738 0 55.1724 2.51559e-09 55.0372 0.0337637C54.6315 0.0675274 54.2258 0.135055 53.8202 0.236346C53.4483 0.337637 53.1102 0.472692 52.7383 0.607747C52.4003 0.742802 52.0284 0.844093 51.6903 0.979148C50.9466 1.24926 50.2028 1.58689 49.4591 1.92453C48.783 2.2284 48.1068 2.56604 47.4307 2.90368C47.0588 3.10626 46.687 3.27508 46.3151 3.47766C45.7404 3.78154 45.1995 4.08541 44.6247 4.38928C43.7796 4.86197 42.9006 5.33467 42.0554 5.80736C41.1089 6.34758 40.1285 6.8878 39.1819 7.39425C37.9986 8.06953 36.7478 8.71104 35.497 9.25126C34.9899 9.45384 34.4828 9.65642 33.9757 9.82524C33.4686 9.99406 32.9615 10.1629 32.4206 10.2304C32.0149 10.2642 31.6092 10.2979 31.1697 10.2642C31.0345 10.2304 30.8993 10.1966 30.764 10.1629C30.6964 10.1291 30.595 10.0616 30.5274 10.0278C30.426 9.92653 30.3584 9.859 30.2569 9.75771C30.2231 9.72395 30.2231 9.69018 30.1893 9.65642C30.1217 9.42007 30.0541 9.14997 30.0203 8.91362C29.9865 8.54222 29.9527 8.17082 29.9527 7.79942C29.9189 7.42802 29.8851 7.05662 29.8851 6.71898C29.8513 6.145 29.7836 5.53725 29.6822 4.96327C29.6146 4.62563 29.5132 4.32175 29.4118 3.98412C29.2765 3.61272 29.1413 3.27508 28.9385 2.93744C28.7694 2.66733 28.5328 2.43099 28.33 2.19464C28.0933 1.9583 27.789 1.75571 27.5186 1.58689C27.3496 1.38431 27.0453 1.28302 26.7072 1.18173C26.3016 1.04667 25.8959 1.01291 25.4902 0.979148C23.9013 0.844093 22.3124 1.18173 20.7911 1.51937C19.2022 1.857 17.6471 2.29593 16.1258 2.76862C15.4158 2.97121 14.7397 3.17379 14.0298 3.41013C12.9479 3.8153 11.8323 4.22046 10.7505 4.62563C8.95876 5.3009 7.16701 6.0437 5.40906 6.78651C4.93577 6.98909 4.46247 7.19167 3.98918 7.39425C3.5497 7.56307 3.14402 7.76565 2.70453 7.96824C1.79175 8.40716 0.912779 8.84609 0 9.28502C1.65652 8.81233 3.27924 8.30587 4.90196 7.83318C6.22042 7.46178 7.53888 7.09038 8.85734 6.68521C10.311 6.24629 11.7647 5.77359 13.2184 5.3009C13.6241 5.16585 14.0636 5.03079 14.4692 4.86197C15.213 4.59186 15.9567 4.38928 16.7005 4.15294C17.8161 3.8153 18.9317 3.47766 20.0473 3.17379C20.622 3.03873 21.163 2.90368 21.7377 2.76862C22.3462 2.63357 22.9547 2.49851 23.597 2.39722C24.3746 2.29593 25.1521 2.26217 25.9297 2.36346C26.2001 2.46475 26.4368 2.53228 26.7072 2.63357C26.9101 2.73486 27.1467 2.86992 27.3158 3.00497C27.4848 3.14003 27.6538 3.30884 27.789 3.4439C27.9243 3.64648 28.0257 3.84906 28.1271 4.05165C28.33 4.5581 28.4652 5.06456 28.5666 5.57101C28.668 6.34758 28.7018 7.15791 28.7694 7.93447C28.7694 8.10329 28.8032 8.23835 28.8032 8.40716C28.8032 8.7448 28.8709 9.1162 28.9047 9.45384C28.9385 9.62266 28.9723 9.75771 29.0061 9.92653C29.0399 10.0953 29.1075 10.2304 29.2089 10.3655C29.2765 10.5005 29.4118 10.6356 29.5132 10.7706C29.5808 10.8719 29.6822 10.9394 29.7498 11.007C29.8513 11.0745 29.9189 11.142 30.0203 11.2096C30.2907 11.3784 30.595 11.5134 30.8993 11.581C31.2373 11.6485 31.5754 11.6822 31.8797 11.6822C32.6572 11.6822 33.4348 11.5134 34.1447 11.3108C34.5166 11.2096 34.8546 11.0745 35.1927 10.9394C35.5308 10.8044 35.9026 10.6693 36.2407 10.5343C36.9845 10.1966 37.7282 9.859 38.4719 9.4876C38.7762 9.31878 39.1143 9.14996 39.4185 8.98115C39.6552 8.84609 39.858 8.71104 40.0947 8.60975C40.7708 8.23835 41.4469 7.83318 42.1569 7.46178C42.9344 7.02285 43.7458 6.58392 44.5233 6.14499C45.3685 5.6723 46.1799 5.23338 47.025 4.76068C47.4307 4.52434 47.8364 4.32175 48.2759 4.11917C49.1886 3.64648 50.1014 3.20755 51.048 2.83615C51.6565 2.56604 52.265 2.3297 52.9074 2.12711C53.5159 1.92453 54.1582 1.68819 54.8005 1.58689C55.1048 1.55313 55.3753 1.51937 55.6457 1.55313C55.6795 1.55313 55.7133 1.58689 55.7809 1.58689C55.8824 1.62066 55.95 1.68819 56.0176 1.72195C56.119 1.82324 56.2204 1.92453 56.3218 2.02582C56.3895 2.09335 56.4233 2.19464 56.4909 2.29593C56.6261 2.66733 56.6937 3.0725 56.7613 3.47766C56.8289 3.98412 56.8289 4.52434 56.8289 5.03079C56.8289 5.40219 56.8289 5.77359 56.8289 6.14499C56.8289 6.55016 56.8289 6.95532 56.8289 7.39425C56.8289 7.56307 56.8628 7.76565 56.8966 7.93447C56.9304 8.10329 56.9642 8.23835 56.998 8.40716C57.0318 8.57598 57.1332 8.7448 57.2008 8.87986C57.2346 8.98115 57.3022 9.04867 57.3698 9.1162C57.4375 9.21749 57.5051 9.31878 57.6065 9.42007C57.7079 9.55513 57.8431 9.62266 57.9446 9.72395C58.0798 9.82524 58.215 9.92653 58.384 10.0278C58.5193 10.0953 58.6545 10.1629 58.7897 10.2304C58.9588 10.2979 59.1278 10.3655 59.2968 10.433C59.6349 10.5343 60.0068 10.568 60.3786 10.6018C60.7843 10.6356 61.19 10.6018 61.5957 10.6018C62.3394 10.568 63.0832 10.433 63.7931 10.2979C64.5707 10.1291 65.3482 9.89277 66.1258 9.65642C67.6471 9.21749 69.1007 8.67727 70.5882 8.13705C71.0277 7.96824 71.501 7.79942 71.9405 7.6306C72.9547 7.2592 73.9689 6.85403 74.9831 6.5164C75.8283 6.21252 76.6734 5.90865 77.5186 5.63854C77.9243 5.50348 78.33 5.40219 78.7356 5.26714C78.9385 5.19961 79.1751 5.13208 79.378 5.06456C79.716 4.96327 80.0541 4.86197 80.426 4.79445C80.5612 4.79445 80.6964 4.79445 80.8316 4.79445C80.8655 4.79445 80.8655 4.79445 80.8993 4.79445C80.9331 4.89574 80.9331 4.96327 80.9669 5.06456C80.9669 5.19961 80.9669 5.3009 80.9669 5.43596C80.8316 6.11123 80.6288 6.75274 80.426 7.42802C80.3245 7.76565 80.2231 8.10329 80.0879 8.44093C80.0541 8.54222 80.0203 8.64351 79.9527 8.7448C79.8851 8.91362 79.8851 9.08244 79.8851 9.25126C79.8851 9.31878 79.9189 9.38631 79.9189 9.4876C79.9189 9.58889 79.9527 9.65642 79.9865 9.75771C80.0203 9.92653 80.1217 10.0616 80.1893 10.2304C80.2231 10.2642 80.2569 10.2979 80.2569 10.3317C80.3245 10.433 80.3922 10.5005 80.4936 10.568C80.6626 10.7031 80.7978 10.7706 81.0007 10.8382C81.3388 10.9394 81.7106 10.9732 82.0487 10.9394C82.3867 10.9057 82.7248 10.8382 83.0629 10.7706C83.3671 10.7031 83.7052 10.6356 84.0095 10.568C84.787 10.3992 85.5308 10.1291 86.2745 9.859C87.7282 9.31878 89.1481 8.77856 90.568 8.20458C92.5287 7.39425 94.5571 6.65145 96.5179 5.90865C97.025 5.70607 97.5321 5.50348 98.073 5.33467C98.7154 5.09832 99.3577 4.82821 100 4.62563C98.8844 4.65939 97.7688 4.89574 96.6193 5.13208ZM80.8316 4.69316C80.8655 4.69316 80.8655 4.72692 80.8993 4.72692C80.8655 4.69316 80.8316 4.69316 80.8316 4.69316ZM81.6092 9.08244C81.643 9.08244 81.643 9.08244 81.6768 9.1162C81.643 9.08244 81.643 9.08244 81.6092 9.08244Z"
      fill="#6600FF"/>
</svg>
