<svg width="134" height="97" viewBox="0 0 134 97" fill="none" xmlns="http://www.w3.org/2000/svg">
  <path
      d="M0 48.6665V96.6665H66.6667H133.333V48.6665V0.666499H66.6667H0V48.6665ZM127.733 9.59983C127.467 12.6665 121.867 17.5998 97.4667 36.9332C80.9333 49.9998 67.2 60.6665 66.6667 60.6665C66.2667 60.6665 52.5333 49.9998 36 36.9332C11.7333 17.7332 5.86667 12.5332 5.6 9.59983L5.2 5.99983H66.6667H128.133L127.733 9.59983ZM35.4667 43.4665C51.3333 55.9998 65.0667 66.5332 65.8667 66.7998C66.8 67.1998 80.8 56.9332 97.0667 43.9998C113.333 31.1998 126.933 20.6665 127.333 20.6665C127.733 20.6665 128 36.5332 128 55.9998V91.3332H66.6667H5.33333V55.9998C5.33333 36.5332 5.6 20.6665 6 20.6665C6.4 20.6665 19.7333 30.9332 35.4667 43.4665Z"
      fill="currentColor"/>
</svg>
