<svg width="1711" height="369" viewBox="0 0 1711 369" fill="none" xmlns="http://www.w3.org/2000/svg">
  <path fill-rule="evenodd" clip-rule="evenodd"
        d="M1316.55 70.7999C1320.8 79.201 1325.43 86.4138 1328.26 94.0473C1346.65 146.425 1323.63 193.392 1268.41 236.022C1239.07 258.768 1202.44 275.077 1158.39 283.505C1116.6 291.478 1076.41 290.334 1038.67 278.85C972.95 258.657 947.477 209.116 979.79 164.668C994.29 144.741 1016.32 128.042 1041.68 113.424C1102.94 78.4853 1173.05 58.8721 1252.98 55.0957L1269.3 53.9097C1266.39 51.508 1264.88 49.5851 1262.49 48.0169C1230.01 27.4402 1189.13 16.7646 1142.97 14.8931C1014.55 9.70927 239.198 39.888 157.567 107.955C112.881 145.173 90.8893 187.42 97.8741 233.368C103.029 266.674 117.165 298.165 139.809 327.586C141.832 330.343 144.287 332.778 146.763 335.501C147.754 336.59 149.177 337.358 151.569 338.926C153.214 336.484 154.902 334.619 155.229 332.853C158.469 321.004 160.823 309.509 164.063 297.66C164.739 294.417 165.847 290.852 168.356 287.767C169.59 285.935 174.883 283.518 177.191 283.931C180.406 284.278 183.336 286.968 185.749 288.825C186.719 289.626 185.917 291.136 185.548 292.324C180.284 313.891 174.567 335.49 168.85 357.089L168.84 357.124C165.991 368.074 159.339 370.59 143.591 367.089C139.881 366.197 136.645 365.562 132.914 364.381C100.693 353.657 68.4716 342.933 37.1361 331.855C27.3233 328.503 18.333 323.93 9.79612 319.324C6.00193 317.277 2.59811 314.331 1.00737 311.253C-0.0251451 309.586 1.53613 305.988 4.17186 304.635C6.35431 303.315 10.95 303.852 14.5763 303.589C15.9361 303.49 16.9057 304.29 17.8752 305.091C42.6634 320.129 74.2842 328.865 103.723 338.92C111.653 341.535 119.111 343.894 130.29 347.431L130.316 347.439L129.999 346.826C128.648 344.207 128.12 343.183 127.218 342.438C101.011 314.147 86.8745 282.655 79.0212 249.836C61.6188 179.676 102.38 119.805 183.004 69.2322C248.826 28.155 997.011 6.62879 1085.94 1.32711C1127.68 -1.12607 1168.86 1.10779 1207.81 10.471C1241.21 18.4966 1269.9 30.9281 1291.71 48.7967C1298 53.856 1304.99 55.9613 1315.11 57.2583C1334.87 59.5964 1664.41 62.2234 1682.51 66.715L1710.23 90.8311C1686.67 80.059 1344.43 71.9674 1316.55 70.7999ZM1080.17 110.046C1127.72 87.1368 1180.94 73.3966 1238.94 68.891L1241.18 68.8344C1252.67 68.5439 1263.82 68.2618 1275.76 67.6667C1284.85 67.2966 1290.48 69.5007 1294.53 75.0135C1314.2 101.167 1318.97 129.274 1307.43 158.566C1289.38 204.882 1249.17 240.904 1181.07 263.274C1145.46 274.863 1108.75 277.531 1071.85 271.502C1001.76 260.047 961.16 209.283 1005.93 160.735C1024.97 140.479 1050.66 124.095 1080.17 110.046Z"
        fill="#currentColor"/>
</svg>
