<svg version="1.0" xmlns="http://www.w3.org/2000/svg"
 width="100.000000pt" height="100.000000pt" viewBox="0 0 100.000000 100.000000"
 preserveAspectRatio="xMidYMid meet">

<g transform="translate(0.000000,100.000000) scale(0.100000,-0.100000)"
fill="currentColor" stroke="none">
<path d="M105 895 c-23 -23 -25 -31 -25 -130 0 -98 1 -105 20 -105 19 0 20 7
20 98 0 63 4 102 12 110 17 17 719 17 736 0 8 -8 12 -60 12 -170 0 -151 1
-158 20 -158 19 0 20 7 20 165 0 163 0 166 -25 190 l-24 25 -371 0 -371 0 -24
-25z"/>
<path d="M167 833 c-4 -3 -7 -44 -7 -90 0 -76 2 -83 20 -83 18 0 20 7 20 70
l0 70 300 0 300 0 0 -130 c0 -124 1 -130 20 -130 20 0 20 5 18 148 l-3 147
-331 3 c-182 1 -333 -1 -337 -5z"/>
<path d="M12 628 c-17 -17 -17 -519 0 -536 17 -17 419 -17 436 0 17 17 17 519
0 536 -17 17 -419 17 -436 0z m408 -268 l0 -240 -190 0 -190 0 0 240 0 240
190 0 190 0 0 -240z"/>
<path d="M65 567 c-3 -7 -4 -96 -3 -197 l3 -185 165 0 165 0 0 195 0 195 -163
3 c-126 2 -164 0 -167 -11z m295 -187 l0 -160 -130 0 -130 0 0 160 0 160 130
0 130 0 0 -160z"/>
<path d="M214 159 c-10 -17 13 -36 27 -22 12 12 4 33 -11 33 -5 0 -12 -5 -16
-11z"/>
<path d="M712 508 c-17 -17 -17 -399 0 -416 17 -17 259 -17 276 0 17 17 17
399 0 416 -17 17 -259 17 -276 0z m248 -208 l0 -180 -110 0 -110 0 0 180 0
180 110 0 110 0 0 -180z"/>
<path d="M765 447 c-3 -7 -4 -69 -3 -138 l3 -124 85 0 85 0 0 135 0 135 -83 3
c-62 2 -84 -1 -87 -11z m135 -127 l0 -100 -50 0 -50 0 0 100 0 100 50 0 50 0
0 -100z"/>
<path d="M834 159 c-10 -17 13 -36 27 -22 12 12 4 33 -11 33 -5 0 -12 -5 -16
-11z"/>
<path d="M480 340 c0 -19 7 -20 100 -20 93 0 100 1 100 20 0 19 -7 20 -100 20
-93 0 -100 -1 -100 -20z"/>
<path d="M580 250 l0 -50 50 0 c43 0 50 3 50 20 0 16 -7 20 -30 20 -16 0 -30
5 -30 10 0 6 14 10 30 10 23 0 30 4 30 20 0 17 -7 20 -50 20 l-50 0 0 -50z"/>
<path d="M480 160 c0 -19 7 -20 100 -20 93 0 100 1 100 20 0 19 -7 20 -100 20
-93 0 -100 -1 -100 -20z"/>
</g>
</svg>
