<svg width="16" height="16" viewBox="0 0 16 16" fill="none" xmlns="http://www.w3.org/2000/svg">
  <path d="M12.412 14.672H12.512V14.572V10.39H13.74V15.9H1.1V10.39H2.328V14.572V14.672H2.428H12.412Z"
        stroke="currentColor" stroke-width="0.6"/>
  <path
      d="M6.8542 3.36367L7.63976 2.42082L12.9701 6.85987L12.1851 7.80314L6.8542 3.36367ZM10.8939 11.817V13.045H3.95693V11.817H10.8939ZM10.2334 0.1399L14.374 5.70643L13.3885 6.4391L9.24787 0.872573L10.2334 0.1399ZM11.3435 9.43014L5.05482 6.50157L5.57335 5.38886L11.862 8.31743L11.3435 9.43014ZM4.3682 8.61542L11.1575 10.0423L10.9047 11.2446L4.11539 9.81672L4.3682 8.61542Z"
      stroke="currentColor" stroke-width="0.6"/>
</svg>
