<svg width="1000" height="1000" viewBox="0 0 1000 1000" fill="none" xmlns="http://www.w3.org/2000/svg">
  <path
      d="M522.274 491.319V291.656C522.274 278.336 511.479 267.535 498.153 267.535C484.833 267.535 474.032 278.336 474.032 291.656V501.311C474.032 502.887 474.188 504.425 474.477 505.91C474.477 505.915 474.477 505.92 474.477 505.926C474.547 506.285 474.627 506.644 474.713 506.998C474.718 507.025 474.724 507.051 474.735 507.078C474.815 507.411 474.906 507.743 475.003 508.07C475.013 508.123 475.029 508.172 475.045 508.225C475.137 508.525 475.233 508.826 475.335 509.12C475.362 509.206 475.389 509.287 475.415 509.367C475.512 509.635 475.614 509.898 475.715 510.16C475.758 510.273 475.801 510.38 475.844 510.493C475.941 510.723 476.042 510.954 476.144 511.179C476.209 511.318 476.268 511.457 476.332 511.591C476.428 511.795 476.525 511.988 476.627 512.187C476.707 512.347 476.788 512.508 476.873 512.669C476.964 512.841 477.061 513.012 477.157 513.184C477.259 513.36 477.356 513.532 477.463 513.709C477.554 513.864 477.656 514.014 477.752 514.17C477.865 514.352 477.978 514.529 478.095 514.706C478.197 514.861 478.304 515.006 478.406 515.156C478.53 515.328 478.647 515.505 478.776 515.671C478.894 515.832 479.023 515.992 479.146 516.153C479.264 516.303 479.377 516.453 479.5 516.598C479.661 516.802 479.832 516.995 480.004 517.188C480.095 517.289 480.181 517.397 480.272 517.498C480.545 517.799 480.824 518.094 481.108 518.378L671.922 709.191C681.339 718.609 696.611 718.609 706.034 709.191C715.452 699.768 715.452 684.497 706.034 675.079L522.274 491.319ZM884.557 528.492H943.589C946.157 528.492 948.628 528.085 950.949 527.34C947.909 578.686 936.283 628.52 916.268 675.84C893.514 729.635 860.939 777.947 819.441 819.446C777.947 860.939 729.63 893.519 675.84 916.268C627.416 936.749 576.365 948.445 523.754 951.147C524.188 949.34 524.424 947.454 524.424 945.508V886.481C524.424 873.155 513.628 862.36 500.303 862.36C486.983 862.36 476.182 873.155 476.182 886.481V945.508C476.182 947.464 476.423 949.362 476.863 951.184C424.037 948.542 372.772 936.83 324.166 916.268C270.37 893.519 222.058 860.939 180.56 819.446C139.066 777.947 106.486 729.635 83.7322 675.84C63.8511 628.831 52.2409 579.34 49.1105 528.353C49.9467 528.444 50.7989 528.492 51.6619 528.492H110.689C124.014 528.492 134.81 517.691 134.81 504.371C134.81 491.046 124.014 480.25 110.689 480.25H51.6619C50.6435 480.25 49.6465 480.32 48.6656 480.438C50.9491 426.353 62.7094 373.871 83.7322 324.166C106.486 270.376 139.066 222.058 180.56 180.559C222.058 139.066 270.37 106.486 324.166 83.7375C373.426 62.9023 425.415 51.1581 478.985 48.7299C477.2 52.0961 476.182 55.934 476.182 60.0132V119.04C476.182 132.366 486.983 143.161 500.303 143.161C513.628 143.161 524.424 132.366 524.424 119.04V60.0132C524.424 55.9448 523.416 52.1176 521.637 48.7567C574.992 51.2492 626.767 62.9827 675.84 83.7375C729.63 106.486 777.947 139.066 819.441 180.559C860.939 222.058 893.514 270.376 916.268 324.166C937.435 374.209 949.217 427.066 951.388 481.542C948.938 480.706 946.317 480.25 943.589 480.25H884.557C871.236 480.25 860.436 491.046 860.436 504.371C860.436 517.691 871.236 528.492 884.557 528.492ZM960.699 305.373C935.516 245.831 899.469 192.363 853.553 146.447C807.643 100.537 754.174 64.489 694.633 39.3066C632.974 13.2237 567.488 -2.01915e-05 500.003 -2.01915e-05C432.512 -2.01915e-05 367.031 13.2237 305.373 39.3066C245.831 64.489 192.357 100.537 146.447 146.447C100.537 192.363 64.489 245.831 39.3012 305.373C13.2237 367.031 0 432.512 0 500.003C0 567.493 13.2237 632.974 39.3012 694.633C64.489 754.174 100.537 807.648 146.447 853.558C192.357 899.469 245.831 935.516 305.373 960.699C367.031 986.782 432.512 1000.01 500.003 1000.01C567.488 1000.01 632.974 986.782 694.633 960.699C754.174 935.516 807.643 899.469 853.553 853.558C899.469 807.648 935.516 754.174 960.699 694.633C986.776 632.974 1000 567.493 1000 500.003C1000 432.512 986.776 367.031 960.699 305.373Z"
      fill="currentColor"/>
</svg>
