<svg version="1.0" xmlns="http://www.w3.org/2000/svg"
 width="100.000000pt" height="100.000000pt" viewBox="0 0 100.000000 100.000000"
 preserveAspectRatio="xMidYMid meet">

<g transform="translate(0.000000,100.000000) scale(0.100000,-0.100000)"
fill="#currentColor" stroke="none">
<path d="M497 814 c-46 -14 -122 -76 -145 -119 -8 -16 -13 -17 -26 -6 -25 21
-101 16 -136 -9 -30 -22 -60 -67 -60 -92 0 -8 -16 -22 -35 -32 -100 -54 -123
-197 -47 -288 55 -66 68 -68 457 -68 344 0 352 0 395 23 73 36 111 113 96 193
-9 47 -68 111 -117 126 -36 10 -39 14 -39 47 0 90 -86 197 -181 225 -64 19
-99 19 -162 0z m201 -61 c59 -36 102 -114 102 -184 0 -48 0 -48 38 -55 133
-24 165 -183 50 -254 -32 -20 -48 -20 -390 -18 -344 3 -358 4 -385 24 -52 39
-75 83 -70 137 5 58 30 94 85 125 31 17 42 30 42 48 0 13 13 38 28 55 34 38
89 42 133 10 l28 -21 27 50 c27 50 79 94 130 110 50 16 132 4 182 -27z"/>
<path d="M480 520 l0 -120 30 0 30 0 0 120 0 120 -30 0 -30 0 0 -120z"/>
<path d="M480 330 c0 -27 3 -30 30 -30 27 0 30 3 30 30 0 27 -3 30 -30 30 -27
0 -30 -3 -30 -30z"/>
</g>
</svg>
