<svg width="18" height="20" viewBox="0 0 18 20" fill="none" xmlns="http://www.w3.org/2000/svg">
  <path
      d="M6.20728 19.3869C6.80628 19.4979 7.00028 19.1259 7.00028 18.8099V16.5759C3.66228 17.3019 2.96728 15.1599 2.96728 15.1599C2.42128 13.7729 1.63428 13.4039 1.63428 13.4039C0.545279 12.6589 1.71728 12.6749 1.71728 12.6749C2.92228 12.7589 3.55628 13.9119 3.55628 13.9119C4.62628 15.7459 6.36328 15.2159 7.04828 14.9089C7.15528 14.1339 7.46628 13.6039 7.81028 13.3049C5.14528 12.9999 2.34328 11.9709 2.34328 7.37391C2.34328 6.06291 2.81228 4.99291 3.57928 4.15291C3.45528 3.84991 3.04428 2.62891 3.69628 0.976911C3.69628 0.976911 4.70428 0.654911 6.99728 2.20691C7.95428 1.94091 8.98028 1.80791 10.0003 1.80291C11.0203 1.80791 12.0473 1.94091 13.0063 2.20691C15.2973 0.654911 16.3033 0.976911 16.3033 0.976911C16.9563 2.62991 16.5453 3.85091 16.4213 4.15291C17.1913 4.99291 17.6563 6.06391 17.6563 7.37391C17.6563 11.9829 14.8493 12.9979 12.1773 13.2949C12.6073 13.6669 13.0003 14.3969 13.0003 15.5169V18.8099C13.0003 19.1289 13.1923 19.5039 13.8013 19.3859"
      stroke="currentColor" stroke-width="1"/>
</svg>
