<svg width="1000" height="1001" viewBox="0 0 1000 1001" fill="none" xmlns="http://www.w3.org/2000/svg">
  <path
      d="M894.275 0C867.163 0 840.186 10.6003 819.529 31.2574L801.862 48.9246L951.354 198.417L969.021 180.749C978.842 170.936 986.633 159.284 991.949 146.459C997.264 133.634 1000 119.887 1000 106.003C1000 92.1202 997.264 78.373 991.949 65.5477C986.633 52.7224 978.842 41.0703 969.021 31.2574C959.227 21.3921 947.584 13.5538 934.759 8.19048C921.934 2.82715 908.177 0.0439639 894.275 0V0ZM768.566 87.6566C763.612 88.3779 759.055 90.7763 755.656 94.4517L50.3256 800.461C47.4983 803.05 45.3911 806.328 44.2101 809.974L0.721496 973.056C-0.249148 976.724 -0.240274 980.582 0.747231 984.245C1.73474 987.908 3.66629 991.247 6.34885 993.93C9.03141 996.612 12.371 998.544 16.034 999.531C19.6969 1000.52 23.5549 1000.53 27.2223 999.557L190.304 956.069C193.95 954.885 197.227 952.778 199.818 949.953L905.827 244.623C909.711 240.514 911.854 235.06 911.805 229.406C911.756 223.751 909.521 218.335 905.566 214.293C901.612 210.251 896.246 207.896 890.594 207.724C884.942 207.551 879.443 209.573 875.249 213.366L173.317 915.298L84.9806 826.962L786.913 125.03C790.111 121.95 792.29 117.965 793.157 113.61C794.023 109.255 793.536 104.739 791.76 100.67C789.984 96.6002 787.005 93.1718 783.223 90.8455C779.441 88.5191 775.038 87.4063 770.605 87.6566H768.566V87.6566Z"
      fill="#1F1926"/>
</svg>
