<svg width="1000" height="1046" viewBox="0 0 1000 1046" fill="none" xmlns="http://www.w3.org/2000/svg">
  <path d="M500.045 0C427.711 0 358.338 28.7349 307.19 79.8834C256.042 131.032 227.307 200.404 227.307 272.739V318.195C227.307 390.53 256.042 459.902 307.19 511.051C358.338 562.199 427.711 590.934 500.045 590.934C572.38 590.934 641.753 562.199 692.901 511.051C744.049 459.902 772.784 390.53 772.784 318.195V272.739C772.784 200.404 744.049 131.032 692.901 79.8834C641.753 28.7349 572.38 0 500.045 0V0ZM499.955 727.304C317.856 727.304 84.2096 825.808 16.9795 913.221C-24.5677 967.268 14.9794 1045.5 83.1187 1045.5H916.881C985.021 1045.5 1024.57 967.268 983.021 913.221C915.79 825.853 682.053 727.304 499.955 727.304Z" fill="#1F1926"/>
</svg>
