<svg width="500" height="414" viewBox="0 0 500 414" fill="none" xmlns="http://www.w3.org/2000/svg">
  <rect x="13" y="13" width="474" height="387" rx="11" fill="#3ABEAA"/>
  <path d="M493.137 91.1763C489.346 91.1763 486.275 88.1044 486.275 84.3135V26.4704C486.275 19.441 480.556 13.7253 473.529 13.7253H26.4706C19.4428 13.7253 13.7255 19.441 13.7255 26.4704V84.3135C13.7255 88.1044 10.6529 91.1763 6.86275 91.1763C3.07255 91.1763 0 88.1044 0 84.3135V26.4704C0 11.8756 11.8745 -0.000208645 26.4706 -0.000208645H473.529C488.124 -0.000208645 500 11.8756 500 26.4704V84.3135C500 88.1044 496.928 91.1763 493.137 91.1763Z" fill="#1F1926"/>
  <path d="M13.7255 91.1764V386.601C13.7255 393.627 19.4428 399.346 26.4706 399.346H473.529C480.556 399.346 486.275 393.627 486.275 386.601V91.1764H13.7255ZM473.529 413.072H26.4706C11.8745 413.072 0 401.196 0 386.601V84.3136C0 80.5228 3.07255 77.4509 6.86275 77.4509H493.137C496.928 77.4509 500 80.5228 500 84.3136V386.601C500 401.196 488.124 413.072 473.529 413.072Z" fill="#1F1926"/>
  <path d="M67.9721 57.0259C61.6551 57.0259 56.5342 51.905 56.5342 45.588C56.5342 39.271 61.6551 34.1501 67.9721 34.1501C74.2891 34.1501 79.41 39.271 79.41 45.588C79.41 51.905 74.2891 57.0259 67.9721 57.0259Z" fill="#1F1926"/>
  <path d="M113.071 57.0259C106.754 57.0259 101.633 51.905 101.633 45.588C101.633 39.271 106.754 34.1501 113.071 34.1501C119.388 34.1501 124.509 39.271 124.509 45.588C124.509 51.905 119.388 57.0259 113.071 57.0259Z" fill="#1F1926"/>
  <path d="M158.168 57.0259C151.851 57.0259 146.73 51.905 146.73 45.588C146.73 39.271 151.851 34.1501 158.168 34.1501C164.485 34.1501 169.606 39.271 169.606 45.588C169.606 51.905 164.485 57.0259 158.168 57.0259Z" fill="#1F1926"/>
  <path d="M182.276 305.935C180.813 305.935 179.338 305.467 178.09 304.503L108.329 250.696C106.645 249.395 105.658 247.389 105.658 245.261C105.658 243.134 106.645 241.127 108.329 239.827L178.09 186.02C181.091 183.703 185.401 184.261 187.715 187.261C190.03 190.261 189.474 194.572 186.473 196.886L123.757 245.261L186.473 293.637C189.474 295.951 190.03 300.261 187.715 303.261C186.363 305.016 184.331 305.935 182.276 305.935Z" fill="#1F1926"/>
  <path d="M317.725 305.935C315.669 305.935 313.637 305.016 312.284 303.261C309.97 300.261 310.526 295.951 313.529 293.637L376.244 245.261L313.529 196.886C310.526 194.572 309.97 190.261 312.284 187.261C314.601 184.261 318.911 183.703 321.911 186.02L391.669 239.827C393.356 241.127 394.343 243.134 394.343 245.261C394.343 247.389 393.356 249.395 391.669 250.696L321.911 304.503C320.663 305.467 319.186 305.935 317.725 305.935Z" fill="#1F1926"/>
  <path d="M224.599 346.938C224.011 346.938 223.414 346.859 222.819 346.699C219.158 345.719 216.985 341.957 217.966 338.294L268.774 148.673C269.758 145.013 273.519 142.84 277.179 143.823C280.843 144.804 283.013 148.565 282.032 152.225L231.224 341.85C230.402 344.915 227.629 346.938 224.599 346.938Z" fill="#1F1926"/>
</svg>
