<svg width="32" height="40" viewBox="0 0 32 40" fill="none" xmlns="http://www.w3.org/2000/svg">
  <path d="M16.0865 26.8444C14.1654 26.8893 12.2883 26.3943 10.6399 25.4081C8.99146 24.4218 7.62843 22.9783 6.68488 21.2194C5.74132 19.4606 5.24974 17.447 5.25847 15.3768C5.26721 13.3065 5.77597 11.2509 6.73472 9.41211C7.69346 7.57332 9.06916 6.01468 10.7265 4.8895C12.3839 3.76432 14.2658 3.11136 16.1871 2.99483C18.1085 2.87831 20.0032 3.30223 21.6848 4.22491C23.3663 5.1476 24.7769 6.53725 25.7778 8.2572L21.7721 11.078C21.1955 10.0872 20.3828 9.28657 19.4141 8.75502C18.4453 8.22347 17.3538 7.97924 16.2469 8.04637C15.14 8.1135 14.0559 8.48967 13.1011 9.13789C12.1463 9.7861 11.3537 10.684 10.8014 11.7433C10.2491 12.8027 9.95599 13.9869 9.95095 15.1796C9.94592 16.3722 10.2291 17.5322 10.7727 18.5455C11.3163 19.5588 12.1015 20.3904 13.0512 20.9586C14.0008 21.5268 15.0822 21.8119 16.1889 21.786L16.0865 26.8444Z" fill="#6600FF"/>
  <path d="M16.7294 13.1691C18.6129 13.2754 20.4187 13.9022 21.9743 14.9897C23.5299 16.0772 24.7834 17.589 25.6151 19.3808C26.4467 21.1726 26.8289 23.1846 26.7249 25.2247C26.621 27.2648 26.0345 29.2649 25.0214 31.0339C24.0084 32.803 22.6025 34.282 20.9382 35.3298C19.2738 36.3776 17.4065 36.9592 15.5144 37.019C13.6224 37.0788 11.7689 36.6148 10.1308 35.6714C8.49267 34.728 7.12471 33.3366 6.15749 31.6301L10.1906 28.8571C10.7479 29.8402 11.5359 30.6418 12.4796 31.1853C13.4233 31.7288 14.4912 31.996 15.5812 31.9616C16.6711 31.9271 17.7469 31.5921 18.7057 30.9885C19.6646 30.3849 20.4745 29.5328 21.0581 28.5136C21.6417 27.4945 21.9796 26.3422 22.0395 25.167C22.0994 23.9917 21.8792 22.8326 21.4001 21.8003C20.921 20.768 20.1988 19.8971 19.3027 19.2706C18.4065 18.6441 17.3662 18.283 16.2811 18.2217L16.7294 13.1691Z" fill="#6600FF"/>
</svg>
