<svg width="64" height="42" viewBox="0 0 64 42" fill="none" xmlns="http://www.w3.org/2000/svg">
  <path d="M21.09 0.666213C-6.393 6.85121 -7.212 29.0812 19.787 35.9482C25.561 37.4162 37.027 37.6872 42.032 36.4742L44.859 35.7882L48.482 38.9972C52.99 42.9852 53.172 42.9872 53.568 39.0842C54.24 32.4132 54.314 32.1932 56.248 30.9392C70.937 21.4322 63.768 5.05921 43.018 0.709213C38.606 -0.214787 25.123 -0.240787 21.09 0.667213V0.666213ZM43.906 2.97021C62.066 7.47821 67.74 20.1092 55.565 28.9202L52.437 31.1842L52.089 34.9462C51.677 39.4132 51.951 39.3242 48.354 36.1642C45.529 33.6802 45.414 33.6322 43.539 34.1442C31.038 37.5572 13.299 34.0912 5.885 26.7842C-8.268 12.8342 17.817 -3.50879 43.906 2.97021ZM29.716 10.2232C27.889 11.0442 26.848 13.4482 27.529 15.2702C28.606 18.1452 32.613 19.0102 34.759 16.8332C38.041 13.5062 34.054 8.27821 29.716 10.2232V10.2232ZM12.803 10.8972C12.631 11.3802 11.969 12.9942 11.33 14.4822C10.692 15.9702 10.17 17.3862 10.17 17.6282C10.17 18.5312 12.05 18.0312 12.3 17.0622C12.498 16.2992 12.976 16.0552 14.284 16.0552C15.594 16.0552 16.074 16.2992 16.271 17.0622C16.495 17.9302 18.608 18.6042 18.608 17.8062C18.608 14.0472 13.743 8.25821 12.803 10.8962V10.8972ZM19.6 14.0402V18.0682H22.295C25.637 18.0682 28.155 15.6112 26.118 14.3332C25.882 14.1852 25.796 13.4922 25.928 12.7912C26.306 10.7862 25.287 10.0132 22.268 10.0132H19.6V14.0402ZM36.968 13.0332C36.968 16.6832 37.993 18.0682 40.692 18.0682C43.388 18.0682 44.412 16.6832 44.412 13.0332C44.412 10.3492 44.303 10.0132 43.422 10.0132C42.55 10.0132 42.428 10.3492 42.428 12.7652C42.428 14.8832 42.226 15.6252 41.547 15.9922C39.86 16.9082 38.955 15.7752 38.955 12.7572C38.955 10.3492 38.834 10.0132 37.962 10.0132C37.08 10.0132 36.968 10.3492 36.968 13.0332V13.0332ZM45.406 10.7692C45.406 11.2382 45.876 11.5232 46.647 11.5232C47.843 11.5232 47.888 11.6412 47.888 14.7972C47.888 17.7322 47.988 18.0672 48.879 18.0672C49.77 18.0672 49.873 17.7322 49.873 14.7972C49.873 11.6412 49.918 11.5232 51.113 11.5232C51.886 11.5232 52.355 11.2382 52.355 10.7692C52.355 10.1692 51.638 10.0132 48.879 10.0132C46.123 10.0132 45.406 10.1702 45.406 10.7692ZM24.066 12.2792C24.066 12.7482 23.598 13.0332 22.826 13.0332C22.054 13.0332 21.585 12.7482 21.585 12.2792C21.585 11.8082 22.054 11.5232 22.825 11.5232C23.598 11.5232 24.067 11.8082 24.067 12.2792H24.066ZM33.212 12.3152C34.343 13.4632 34.169 14.9052 32.783 15.8252C31.147 16.9152 29.524 16.0672 29.524 14.1222C29.524 11.6942 31.597 10.6772 33.212 12.3152ZM15.098 14.1652C15.117 14.3742 14.691 14.5432 14.15 14.5432C13.273 14.5432 13.233 14.4032 13.757 13.2382C14.319 11.9822 14.936 12.4082 15.098 14.1662V14.1652ZM24.314 15.5502C24.314 16.0002 23.762 16.3702 22.95 16.4642C21.837 16.5942 21.585 16.4242 21.585 15.5502C21.585 14.6762 21.837 14.5072 22.95 14.6372C23.762 14.7312 24.314 15.1012 24.314 15.5502ZM42.428 21.5902C42.428 25.8902 43.758 25.8902 43.998 21.5902C44.141 18.9832 44.046 18.5682 43.298 18.5702C42.567 18.5702 42.428 19.0512 42.428 21.5902ZM19.855 22.4432C19.107 24.3282 18.385 26.1522 18.25 26.4972C18.102 26.8772 18.407 27.1272 19.017 27.1272C19.593 27.1272 20.165 26.6932 20.343 26.1212C20.577 25.3762 21.093 25.1132 22.33 25.1132C23.564 25.1132 24.081 25.3762 24.315 26.1212C24.608 27.0612 26.547 27.5942 26.547 26.7342C26.547 26.5192 25.892 24.7652 25.091 22.8342C23.002 17.7972 21.739 17.7032 19.855 22.4442V22.4432ZM27.54 23.1002V27.1282H30.765C33.302 27.1282 33.991 26.9662 33.991 26.3722C33.991 25.8142 33.412 25.6182 31.759 25.6182H29.524V22.3472C29.524 19.4092 29.424 19.0732 28.534 19.0732C27.624 19.0732 27.54 19.4092 27.54 23.1002V23.1002ZM34.984 23.1002V27.1282H38.21C40.747 27.1282 41.435 26.9662 41.435 26.3722C41.435 25.8142 40.856 25.6182 39.203 25.6182H36.968V22.3472C36.968 19.4092 36.868 19.0732 35.978 19.0732C35.068 19.0732 34.984 19.4092 34.984 23.1002V23.1002ZM23.066 22.9752C23.071 23.3202 22.738 23.6032 22.33 23.6032C21.52 23.6032 21.408 23.1432 21.901 21.8422C22.247 20.9282 23.05 21.7122 23.066 22.9752ZM42.77 25.4402C42.089 26.1312 42.441 27.1992 43.299 27.0322C43.775 26.9382 44.166 26.5442 44.166 26.1582C44.166 25.3632 43.292 24.9132 42.77 25.4402Z" fill="black"/>
</svg>
